<?xml version="1.0" encoding="UTF-8"?>
<svg version="1.1" xmlns="http://www.w3.org/2000/svg" width="2025" height="2025">
<path d="M0 0 C1.17159888 0.00829614 2.34319777 0.01659227 3.55029964 0.02513981 C4.52550852 0.0299835 4.52550852 0.0299835 5.52041858 0.03492504 C7.71467653 0.04705839 9.90881283 0.06641881 12.10301876 0.08570194 C13.66964607 0.09583858 15.2362763 0.10553291 16.8029089 0.11481571 C21.0692825 0.14135841 25.33558875 0.17412514 29.60190988 0.20796561 C34.05553823 0.24224778 38.50920277 0.2708666 42.96286678 0.30007267 C51.40249009 0.3562852 59.84206807 0.41762968 68.2816419 0.48079401 C77.8872598 0.55243728 87.49291405 0.61839587 97.09857571 0.68386447 C116.86369606 0.81870417 136.62874864 0.96147384 156.39379025 1.10743046 C156.39379025 13.31743046 156.39379025 25.52743046 156.39379025 38.10743046 C151.89697628 38.12201298 147.40016232 38.1365955 142.76708126 38.15161991 C127.90711343 38.20196411 113.04724979 38.26840937 98.18738556 38.34314537 C89.17815542 38.38806343 80.16896446 38.42748727 71.15965939 38.453866 C63.30487521 38.47687843 55.45021543 38.51031262 47.59552997 38.55613202 C43.43858443 38.58002057 39.28176175 38.59877791 35.12474918 38.60504436 C31.2070145 38.61111506 27.28959401 38.63118604 23.3719759 38.66170597 C21.93898994 38.67045452 20.50596288 38.67421541 19.07295132 38.67243862 C5.96078781 38.65272637 5.96078781 38.65272637 -5.48120975 44.35743046 C-7.89039765 47.47520302 -9.22529446 50.42498966 -10.60620975 54.10743046 C-11.22495975 55.40680546 -11.22495975 55.40680546 -11.85620975 56.73243046 C-13.64207574 62.38767274 -10.08978409 69.03778507 -7.60620975 74.10743046 C-5.00430252 78.17520092 -3.04856963 80.72642974 1.70629025 81.98243046 C2.59316525 82.02368046 3.48004025 82.06493046 4.39379025 82.10743046 C4.72379025 82.43743046 5.05379025 82.76743046 5.39379025 83.10743046 C6.73524064 83.20056091 8.08155688 83.22488947 9.42623043 83.22095585 C10.29519451 83.22088535 11.16415859 83.22081486 12.05945492 83.22074223 C13.02040569 83.2155759 13.98135647 83.21040958 14.97142696 83.20508671 C15.97802868 83.20362644 16.98463039 83.20216618 18.02173519 83.20066166 C20.21745317 83.19684409 22.41316803 83.19071552 24.60887432 83.18259525 C28.09009318 83.16986972 31.57127405 83.16332468 35.05251217 83.15845585 C43.70928039 83.14505569 52.36601312 83.12098175 61.02275753 83.09705448 C68.31849245 83.07726507 75.61421348 83.06164074 82.90996838 83.05149174 C86.32809324 83.04503972 89.74616119 83.03252507 93.16426754 83.01978397 C95.2835806 83.01614727 97.40289418 83.01279607 99.52220821 83.00977421 C100.46291668 83.00460789 101.40362514 82.99944157 102.37283993 82.99411869 C110.06147569 82.99351455 117.93662319 83.06880017 125.39379025 85.10743046 C126.10535275 85.27500858 126.81691525 85.44258671 127.55004025 85.61524296 C137.7521257 88.30179213 146.86088595 93.74572853 154.39379025 101.10743046 C154.39379025 101.76743046 154.39379025 102.42743046 154.39379025 103.10743046 C155.05379025 103.10743046 155.71379025 103.10743046 156.39379025 103.10743046 C160.70179422 108.85543576 163.62054409 115.17885275 165.39379025 122.10743046 C165.59875118 122.86797733 165.80371212 123.62852421 166.014884 124.41211796 C169.98997638 142.01218217 168.35903491 161.60675523 159.08129025 177.23243046 C150.51293677 190.13689008 138.53431376 198.59266607 123.39379025 202.10743046 C120.39976817 202.52553627 117.40547772 202.84791997 114.39379025 203.10743046 C114.39379025 203.43743046 114.39379025 203.76743046 114.39379025 204.10743046 C111.72712358 204.10743046 109.06045691 204.10743046 106.39379025 204.10743046 C104.33962137 204.10951258 102.2854527 204.11178637 100.23128414 204.11415958 C82.27187134 204.13427844 64.31246127 204.14944756 46.35303974 204.15924263 C37.12638423 204.16440922 27.8997372 204.17146293 18.67308712 204.18286991 C10.62469465 204.19281524 2.57630832 204.19928328 -5.47209013 204.20151895 C-9.73380092 204.20282577 -13.99549412 204.20591016 -18.25719929 204.21316051 C-22.26099324 204.21991809 -26.26476225 204.22204796 -30.26856136 204.22053814 C-31.74202262 204.22081453 -33.21548466 204.22282053 -34.688941 204.22663593 C-36.69184493 204.23157052 -38.69476207 204.22982863 -40.69767094 204.22768497 C-41.8211273 204.22860677 -42.94458366 204.22952856 -44.10208416 204.23047829 C-46.60620975 204.10743046 -46.60620975 204.10743046 -47.60620975 203.10743046 C-47.70720463 200.38018767 -47.74591505 197.67880523 -47.73902225 194.95118046 C-47.73997898 194.13371342 -47.74093571 193.31624638 -47.74192142 192.47400761 C-47.74260321 190.74227668 -47.74074905 189.01054322 -47.73658085 187.27881718 C-47.73123255 184.61876564 -47.73652588 181.95888296 -47.7429285 179.29883671 C-47.74226772 177.62045092 -47.74098656 175.94206523 -47.73902225 174.26368046 C-47.74104649 173.46264896 -47.74307072 172.66161747 -47.74515629 171.83631229 C-47.72116054 166.22238125 -47.72116054 166.22238125 -46.60620975 165.10743046 C-44.53805545 165.01369022 -42.46664336 164.99169356 -40.39637089 164.99631596 C-39.74033107 164.99631694 -39.08429126 164.99631792 -38.40837145 164.99631894 C-36.19368828 164.99735815 -33.97908178 165.00538933 -31.76441288 165.01319218 C-30.18282975 165.01507009 -28.60124592 165.0164157 -27.0196619 165.01726627 C-23.60437728 165.01955547 -20.18910727 165.02428657 -16.77382755 165.03046131 C-11.36925631 165.03884869 -5.96475643 165.03344196 -0.56018925 165.02445316 C0.3513301 165.02298216 1.26284945 165.02151115 2.2019906 165.01999557 C4.06655542 165.01692454 5.93112016 165.0138045 7.79568481 165.01063657 C20.38250305 164.98944609 32.96909066 164.9756943 45.55589962 165.00782108 C54.03885308 165.02937307 62.52139857 165.02616721 71.00432539 164.99441254 C75.49350394 164.97857781 79.98190282 164.97528766 84.47104549 165.00217152 C88.70017837 165.02727306 92.92800863 165.0195745 97.15708065 164.98729229 C98.70458163 164.98122207 100.25218392 164.98697511 101.79958248 165.00578594 C110.28752794 165.10179329 116.38679911 164.75065079 122.78790188 158.60807323 C124.39379025 157.10743046 124.39379025 157.10743046 126.39379025 157.10743046 C126.66191525 156.26180546 126.93004025 155.41618046 127.20629025 154.54493046 C128.39379025 151.10743046 128.39379025 151.10743046 130.01879025 147.66993046 C132.39326187 141.51789034 131.75094839 137.45562394 129.26879025 131.48243046 C125.90036766 124.55581499 121.58686649 121.04337995 114.39379025 118.10743046 C112.06991078 117.71355258 109.73585275 117.37256961 107.39379025 117.10743046 C106.40379025 116.77743046 105.41379025 116.44743046 104.39379025 116.10743046 C103.00394418 116.03239399 101.61061608 116.01377795 100.21886349 116.03186893 C98.94443638 116.04459591 98.94443638 116.04459591 97.64426327 116.05757999 C96.71533764 116.07209705 95.78641201 116.08661411 94.82933712 116.10157108 C93.84860729 116.11278492 92.86787746 116.12399876 91.85742855 116.13555241 C89.7260936 116.16057601 87.59478558 116.18797866 85.46350765 116.21746159 C82.09358913 116.26394184 78.723649 116.30403751 75.35362911 116.34241581 C68.20027414 116.42502418 61.04703281 116.5156624 53.89379025 116.60743046 C45.60657581 116.7137461 37.31934883 116.81680946 29.0319891 116.91118717 C25.70651725 116.95080545 22.38116635 116.99660953 19.05577755 117.04261112 C17.0232697 117.06647442 14.99075844 117.0900497 12.95824337 117.11328983 C12.02931774 117.12780689 11.10039211 117.14232395 10.14331722 117.15728092 C8.86889011 117.1700079 8.86889011 117.1700079 7.568717 117.18299198 C6.46149666 117.19738441 6.46149666 117.19738441 5.33190823 117.2120676 C3.39379025 117.10743046 3.39379025 117.10743046 0.39379025 116.10743046 C-1.52034711 115.79960135 -3.43745332 115.51001705 -5.35620975 115.23243046 C-15.69695744 113.53173126 -25.21886314 108.34417538 -33.60620975 102.10743046 C-33.60620975 101.44743046 -33.60620975 100.78743046 -33.60620975 100.10743046 C-34.26620975 100.10743046 -34.92620975 100.10743046 -35.60620975 100.10743046 C-35.60620975 99.44743046 -35.60620975 98.78743046 -35.60620975 98.10743046 C-36.26620975 98.10743046 -36.92620975 98.10743046 -37.60620975 98.10743046 C-37.60620975 97.44743046 -37.60620975 96.78743046 -37.60620975 96.10743046 C-38.26620975 96.10743046 -38.92620975 96.10743046 -39.60620975 96.10743046 C-45.33079668 88.6908474 -50.89405073 79.70212962 -50.60620975 70.10743046 C-51.10577778 67.6809572 -51.82056761 65.46435688 -52.60620975 63.10743046 C-52.69998664 61.27602304 -52.73613933 59.44123059 -52.73120975 57.60743046 C-52.73378788 56.64836796 -52.736366 55.68930546 -52.73902225 54.70118046 C-52.60620975 52.10743046 -52.60620975 52.10743046 -51.60620975 49.10743046 C-51.46183475 47.82868046 -51.31745975 46.54993046 -51.16870975 45.23243046 C-50.78895887 41.91267275 -50.03500618 39.15552951 -48.60620975 36.10743046 C-47.94620975 36.10743046 -47.28620975 36.10743046 -46.60620975 36.10743046 C-47.10120975 34.62243046 -47.10120975 34.62243046 -47.60620975 33.10743046 C-45.07030585 26.94880669 -41.67829222 21.45492972 -36.60620975 17.10743046 C-36.0441785 16.56731327 -35.48214725 16.02719608 -34.90308475 15.47071171 C-29.81808975 10.70611273 -24.14660338 6.62609136 -17.60620975 4.10743046 C-15.27808475 4.45118046 -15.27808475 4.45118046 -13.60620975 5.10743046 C-13.60620975 4.44743046 -13.60620975 3.78743046 -13.60620975 3.10743046 C-11.95620975 2.77743046 -10.30620975 2.44743046 -8.60620975 2.10743046 C-8.60620975 1.77743046 -8.60620975 1.44743046 -8.60620975 1.10743046 C-7.39964725 1.13836796 -7.39964725 1.13836796 -6.16870975 1.16993046 C-3.1331891 1.09589337 -3.04791618 0.12563802 0 0 Z " fill="#FEFEFE" transform="translate(465.60620975494385,839.8925695419312)"/>
<path d="M0 0 C0 0.66 0 1.32 0 2 C0.66 2 1.32 2 2 2 C2 2.66 2 3.32 2 4 C2.66 4 3.32 4 4 4 C4 4.66 4 5.32 4 6 C4.66 6 5.32 6 6 6 C7.57353271 8.17965631 9.0191628 10.34741167 10.4375 12.625 C10.83259766 13.24246094 11.22769531 13.85992188 11.63476562 14.49609375 C17.92311113 24.43607416 17.92311113 24.43607416 19 30 C19.165 30.804375 19.33 31.60875 19.5 32.4375 C19.83333333 34.14583333 20.16666667 35.85416667 20.5 37.5625 C21.08988167 40.43817313 21.77375604 43.25339493 22.625 46.0625 C23 48 23 48 22 51 C22.33 51.33 22.66 51.66 23 52 C23.09927286 53.9562593 23.12969729 55.91622909 23.125 57.875 C23.12757813 58.94492187 23.13015625 60.01484375 23.1328125 61.1171875 C23 64 23 64 22 67 C22.33 67.99 22.66 68.98 23 70 C22.64453125 72.36328125 22.64453125 72.36328125 22 75 C21.79761719 75.83917969 21.59523438 76.67835938 21.38671875 77.54296875 C14.94521784 101.90551689 14.94521784 101.90551689 6 109 C5.34 109 4.68 109 4 109 C3.67 110.32 3.34 111.64 3 113 C2.01 113 1.02 113 0 113 C-0.24105469 113.59683594 -0.48210937 114.19367188 -0.73046875 114.80859375 C-2.25407459 117.43857183 -3.75328632 118.4495502 -6.3125 120.0625 C-7.07175781 120.54847656 -7.83101562 121.03445313 -8.61328125 121.53515625 C-11.06566679 123.04030286 -13.5287729 124.52601145 -16 126 C-15.24074219 126.73605469 -14.48148438 127.47210937 -13.69921875 128.23046875 C-12.69504479 129.2158731 -11.69115346 130.20156552 -10.6875 131.1875 C-10.18798828 131.67025391 -9.68847656 132.15300781 -9.17382812 132.65039062 C-6.98508461 134.81014416 -5.10365974 136.82277528 -3.546875 139.484375 C-1.4254801 142.93432024 1.45086785 145.3818062 4.4375 148.0625 C12.86538477 155.78160211 20.93501174 163.84374776 29 171.9375 C29.64162079 172.58107452 30.28324158 173.22464905 30.94430542 173.88772583 C34.63290711 177.58847485 38.31795382 181.29272901 42 185 C41.34 185.99 40.68 186.98 40 188 C37.91944885 188.36749268 37.91944885 188.36749268 35.32250977 188.35644531 C33.8657357 188.36094696 33.8657357 188.36094696 32.37953186 188.36553955 C30.80140968 188.34701935 30.80140968 188.34701935 29.19140625 188.328125 C28.11374496 188.32625183 27.03608368 188.32437866 25.92576599 188.32244873 C23.64343175 188.315717 21.36110925 188.30178048 19.07885742 188.28125 C15.58045763 188.25015959 12.08250847 188.24028675 8.58398438 188.234375 C6.36978616 188.22520262 4.15559254 188.21482611 1.94140625 188.203125 C0.36632042 188.19675018 0.36632042 188.19675018 -1.24058533 188.19024658 C-2.2149202 188.18063904 -3.18925507 188.17103149 -4.19311523 188.16113281 C-5.05090073 188.15430481 -5.90868622 188.14747681 -6.79246521 188.14044189 C-9 188 -9 188 -12 187 C-12 186.01 -12 185.02 -12 184 C-12.81984375 183.68482422 -12.81984375 183.68482422 -13.65625 183.36328125 C-16.85323777 181.50370003 -19.06701959 178.92012031 -21.5 176.1875 C-22.56489038 175.01152512 -23.63000106 173.8357497 -24.6953125 172.66015625 C-25.23961914 172.05574707 -25.78392578 171.45133789 -26.34472656 170.82861328 C-28.48451224 168.46474976 -30.65378404 166.1291654 -32.82446289 163.79370117 C-37.32502387 158.95015932 -41.72399064 154.04349822 -46 149 C-46.54527344 148.48695313 -47.09054687 147.97390625 -47.65234375 147.4453125 C-49 146 -49 146 -49 144 C-49.87591797 143.63068359 -49.87591797 143.63068359 -50.76953125 143.25390625 C-53.34537822 141.80583817 -54.79650568 140.19766892 -56.6875 137.9375 C-57.28949219 137.22464844 -57.89148437 136.51179687 -58.51171875 135.77734375 C-59.00285156 135.19082031 -59.49398438 134.60429688 -60 134 C-61.90172385 132.09827615 -65.37710849 132.83615903 -67.96655273 132.82641602 C-68.69500397 132.819729 -69.4234552 132.81304199 -70.17398071 132.80615234 C-71.76073449 132.79207098 -73.34750889 132.78018684 -74.93429375 132.77020454 C-77.44276793 132.75384642 -79.95108903 132.73061161 -82.45948792 132.70530701 C-89.59311346 132.63438351 -96.72680156 132.57434666 -103.8605957 132.52319336 C-108.21901379 132.49145794 -112.57725679 132.45019613 -116.93553352 132.40299797 C-118.60012738 132.38694434 -120.26476162 132.37463838 -121.92941093 132.36609077 C-124.25447306 132.35397995 -126.57912119 132.32984892 -128.90405273 132.30297852 C-129.94286842 132.3020948 -129.94286842 132.3020948 -131.00267029 132.30119324 C-135.77210438 132.22789562 -135.77210438 132.22789562 -138 130 C-138.25878906 127.06665039 -138.25878906 127.06665039 -138.265625 123.34765625 C-138.26849518 122.3637516 -138.26849518 122.3637516 -138.27142334 121.35997009 C-138.27278468 119.9721539 -138.26909174 118.58432495 -138.26074219 117.1965332 C-138.25005834 115.07408939 -138.2606296 112.95249525 -138.2734375 110.83007812 C-138.27211556 109.48176897 -138.26955245 108.13346034 -138.265625 106.78515625 C-138.26336914 105.55676025 -138.26111328 104.32836426 -138.25878906 103.06274414 C-138 100 -138 100 -136 97 C-133.19975749 96.73479999 -130.62404373 96.66340532 -127.82519531 96.72290039 C-126.55638771 96.73188103 -126.55638771 96.73188103 -125.26194763 96.74104309 C-123.41923968 96.75583685 -121.57657721 96.77748144 -119.73401642 96.80507088 C-116.8063204 96.84797579 -113.87905955 96.87131929 -110.95111084 96.88926697 C-102.62416397 96.94430299 -94.29771765 97.03809848 -85.97119141 97.13696289 C-80.87903726 97.19606647 -75.78701907 97.23495288 -70.69460297 97.26269341 C-67.8307372 97.28465689 -64.967872 97.33015686 -62.10430908 97.37623596 C-48.67226758 97.50331796 -34.33976767 96.76647362 -24 87 C-16.48040605 78.74123992 -15.91215472 70.62927887 -16 60 C-16 59.34 -16 58.68 -16 58 C-16.31904401 48.95510228 -18.07227058 40.98798345 -22.6875 33.125 C-27.97652857 28.26481159 -34.11695977 25.72076006 -41 24 C-41.33 23.67 -41.66 23.34 -42 23 C-43.51775846 22.89208716 -45.04047969 22.85317288 -46.56202698 22.84178162 C-47.54785767 22.8319928 -48.53368835 22.82220398 -49.5493927 22.81211853 C-50.63983383 22.80636307 -51.73027496 22.8006076 -52.85375977 22.79467773 C-53.99507355 22.78477814 -55.13638733 22.77487854 -56.31228638 22.76467896 C-60.10530484 22.73295372 -63.89833586 22.70826311 -67.69140625 22.68359375 C-70.31314937 22.66303373 -72.9348891 22.64203753 -75.55662537 22.62062073 C-81.76498548 22.57064422 -87.97337159 22.52572386 -94.18178266 22.48259836 C-101.24820776 22.43326827 -108.31458577 22.37833451 -115.38096535 22.32291877 C-129.920599 22.20902265 -144.46027951 22.1022003 -159 22 C-158.99815641 22.84336851 -158.99631283 23.68673702 -158.99441338 24.55566216 C-158.95029445 45.0521683 -158.91717276 65.54866629 -158.89637566 86.04520988 C-158.88605169 95.95707781 -158.87197002 105.8689141 -158.84912109 115.78076172 C-158.82922144 124.41731414 -158.81629172 133.05384365 -158.81182301 141.69041836 C-158.80920981 146.26577726 -158.80304452 150.8410706 -158.78853989 155.41640854 C-158.77501001 159.71894619 -158.77076799 164.021391 -158.77378464 168.32394791 C-158.77323241 169.90664422 -158.76922768 171.4893435 -158.76158905 173.07202148 C-158.75169948 175.22593564 -158.75400889 177.37949509 -158.75949097 179.53341675 C-158.75764738 180.74096556 -158.75580379 181.94851437 -158.75390434 183.19265556 C-159 186 -159 186 -161 188 C-163.62940196 188.19965373 -166.15120163 188.2798411 -168.78125 188.265625 C-169.55053833 188.26753845 -170.31982666 188.2694519 -171.11242676 188.27142334 C-172.7398308 188.27278508 -174.3672457 188.26908939 -175.99462891 188.26074219 C-178.49015631 188.25004221 -180.98496382 188.26063751 -183.48046875 188.2734375 C-185.05989743 188.2721159 -186.63932566 188.2695535 -188.21875 188.265625 C-188.9677356 188.26967346 -189.71672119 188.27372192 -190.48840332 188.27789307 C-195.77007757 188.22992243 -195.77007757 188.22992243 -198 186 C-198.19325521 183.34166354 -198.26046573 180.78792483 -198.24050903 178.12875366 C-198.24221788 177.30625079 -198.24392673 176.48374791 -198.24568737 175.63632071 C-198.2489964 172.86471919 -198.23795544 170.09335677 -198.22705078 167.32177734 C-198.22648697 165.34121201 -198.22680263 163.36064626 -198.22793579 161.38008118 C-198.22851149 155.98983932 -198.21672216 150.59968581 -198.20278788 145.20946455 C-198.19031657 139.5813488 -198.18911287 133.9532312 -198.18673706 128.32510376 C-198.18051168 117.661403 -198.16408658 106.99774306 -198.14403808 96.33406031 C-198.12171195 84.19640292 -198.11069393 72.05874362 -198.10064721 59.92107081 C-198.07972125 34.94735788 -198.04452477 9.97368122 -198 -15 C-177.71976468 -15.15420984 -157.43949311 -15.30223324 -137.15915966 -15.4429636 C-127.74190615 -15.50845534 -118.32467499 -15.5759443 -108.9074707 -15.64819336 C-100.69605526 -15.71118644 -92.48462254 -15.77037273 -84.2731474 -15.82505554 C-79.9283354 -15.85412016 -75.58355518 -15.88504498 -71.23879051 -15.92053413 C-67.14228647 -15.95393514 -63.0457778 -15.98221338 -58.94921112 -16.00670624 C-57.45252717 -16.0165316 -55.95585373 -16.02816553 -54.45919991 -16.04183006 C-34.26910802 -16.223393 -16.04024371 -13.63044184 0 0 Z " fill="#FEFEFE" transform="translate(1334,856)"/>
<path d="M0 0 C2.16426373 0.06487274 2.16426373 0.06487274 3.16426373 1.06487274 C4.40176373 1.14737274 5.63926373 1.22987274 6.91426373 1.31487274 C18.49827201 2.51194832 30.29182574 8.62087716 39.16426373 16.06487274 C39.16426373 16.72487274 39.16426373 17.38487274 39.16426373 18.06487274 C39.76496685 18.33299774 40.36566998 18.60112274 40.98457623 18.87737274 C47.59108129 22.47661565 51.83309561 30.5869986 55.16426373 37.06487274 C55.5267242 38.39058436 55.86322432 39.72387902 56.16426373 41.06487274 C56.67988873 42.19924774 57.19551373 43.33362274 57.72676373 44.50237274 C59.08368774 47.86518444 59.25893194 49.56214892 59.16426373 53.06487274 C59.48822124 53.624487 59.81217876 54.18410126 60.14595318 54.76067352 C61.57000486 57.98297027 61.40600071 60.73019605 61.39473248 64.24456024 C61.39427425 64.93494385 61.39381603 65.62532745 61.39334393 66.33663177 C61.39032983 67.79407728 61.38246874 69.2515198 61.37007427 70.70891571 C61.35188298 72.92534216 61.34956438 75.14134833 61.3498106 77.35784149 C61.29285499 93.80769022 61.29285499 93.80769022 58.16426373 100.06487274 C57.50426373 100.06487274 56.84426373 100.06487274 56.16426373 100.06487274 C56.39371685 100.58307587 56.62316998 101.10127899 56.85957623 101.63518524 C57.31359436 105.25568881 55.67994682 107.82389799 54.03926373 110.93987274 C53.59453716 111.83899384 53.59453716 111.83899384 53.14082623 112.75627899 C50.94937034 117.03704664 48.31575046 120.43807981 45.16426373 124.06487274 C44.50426373 125.05487274 43.84426373 126.04487274 43.16426373 127.06487274 C42.50426373 127.06487274 41.84426373 127.06487274 41.16426373 127.06487274 C41.16426373 127.72487274 41.16426373 128.38487274 41.16426373 129.06487274 C40.50426373 129.06487274 39.84426373 129.06487274 39.16426373 129.06487274 C38.83426373 129.72487274 38.50426373 130.38487274 38.16426373 131.06487274 C31.91970449 136.5525157 25.09735952 140.6028775 17.16426373 143.06487274 C16.50426373 142.73487274 15.84426373 142.40487274 15.16426373 142.06487274 C15.16426373 142.72487274 15.16426373 143.38487274 15.16426373 144.06487274 C8.59394024 146.24583607 2.15671306 148.06487274 -4.83573627 148.06487274 C-6.75248943 148.07227356 -8.66924257 148.07967658 -10.58599567 148.08708954 C-20.26622283 148.12393623 -29.94644038 148.15023784 -39.62672043 148.16849709 C-44.98947566 148.17895433 -50.35216777 148.19315163 -55.71488667 148.21575165 C-60.89017136 148.23742468 -66.06539515 148.24942935 -71.2407217 148.25462723 C-73.217959 148.25833226 -75.19519283 148.2655669 -77.17240429 148.27633286 C-79.93322142 148.29077467 -82.69378416 148.29285379 -85.45463276 148.29192352 C-86.27808689 148.29911407 -87.10154102 148.30630463 -87.94994831 148.31371307 C-93.60763118 148.29297783 -93.60763118 148.29297783 -95.83573627 146.06487274 C-96.03530597 143.50736822 -96.11560454 141.06049134 -96.10136127 138.50237274 C-96.10423145 137.38173431 -96.10423145 137.38173431 -96.10715961 136.23845673 C-96.10852125 134.65813104 -96.10482627 133.07779416 -96.09647846 131.49748993 C-96.08577827 129.07438352 -96.09637407 126.65201851 -96.10917377 124.22893524 C-96.10785218 122.69507943 -96.10528977 121.16122409 -96.10136127 119.62737274 C-96.10540974 118.90026093 -96.1094582 118.17314911 -96.11362934 117.4240036 C-96.06565988 112.29479635 -96.06565988 112.29479635 -93.83573627 110.06487274 C-90.96915322 109.88711867 -88.20066044 109.83413033 -85.33451557 109.86956024 C-84.45468006 109.87248077 -83.57484455 109.87540131 -82.66834736 109.87841034 C-80.75363336 109.88603374 -78.83893358 109.89827885 -76.92427349 109.91454315 C-73.89406616 109.94000626 -70.86403335 109.95308552 -67.83373737 109.96282196 C-60.30460871 109.98960949 -52.77564501 110.03794071 -45.24662495 110.08562469 C-38.89136219 110.12507771 -32.53616147 110.15636812 -26.18080807 110.17675018 C-23.19552886 110.18971821 -20.21050375 110.21473881 -17.22530842 110.24016571 C-15.39192139 110.24743235 -13.55853202 110.25413562 -11.72514057 110.26018524 C-10.48044247 110.2756842 -10.48044247 110.2756842 -9.21059895 110.29149628 C-4.94468023 110.29227772 -1.7265968 110.02598448 2.16426373 108.06487274 C2.88227154 107.74389618 3.60027935 107.42291962 4.34004498 107.09221649 C12.91113353 102.72049125 19.05886771 96.20853878 22.16426373 87.06487274 C22.57676373 85.97174774 22.98926373 84.87862274 23.41426373 83.75237274 C24.47240762 81.12184753 24.47240762 81.12184753 23.16426373 79.06487274 C23.49426373 78.40487274 23.82426373 77.74487274 24.16426373 77.06487274 C24.08899196 66.05637709 21.22968288 56.5898151 14.16426373 48.06487274 C4.97952254 39.39758177 -6.76839175 38.92814974 -18.72807026 38.85955048 C-19.80198521 38.84965088 -20.87590015 38.83975128 -21.98235798 38.8295517 C-25.51549326 38.79808218 -29.04864196 38.77323696 -32.58183002 38.74846649 C-35.03805602 38.7278844 -37.49427857 38.7068876 -39.95049763 38.68549347 C-46.4030398 38.63040249 -52.85561325 38.58093614 -59.30820942 38.53264618 C-65.89749135 38.48233625 -72.48672808 38.4266998 -79.07597065 38.37151337 C-91.99585362 38.26409055 -104.91577523 38.16242955 -117.83573627 38.06487274 C-117.83481448 38.90824125 -117.83389269 39.75160976 -117.83294296 40.6205349 C-117.81088349 61.11704837 -117.79432264 81.6135598 -117.7839241 102.11008263 C-117.77876213 112.02193757 -117.77172129 121.9337846 -117.76029682 131.84563446 C-117.750347 140.48218673 -117.74388213 149.11873327 -117.74164778 157.7552911 C-117.74034118 162.33062837 -117.73725853 166.90594925 -117.73000622 171.48128128 C-117.72324131 175.78380054 -117.72112028 180.08629658 -117.72262859 184.38882065 C-117.72235248 185.97151312 -117.72035014 187.55420634 -117.7165308 189.13689423 C-117.71158622 191.29072158 -117.71274084 193.44446026 -117.71548176 195.59828949 C-117.71455997 196.8058383 -117.71363817 198.01338711 -117.71268845 199.25752831 C-117.83573627 202.06487274 -117.83573627 202.06487274 -118.83573627 204.06487274 C-123.80195977 204.08952372 -128.76814794 204.10770923 -133.73441792 204.11980438 C-135.42517943 204.12484464 -137.11593657 204.13167679 -138.80668354 204.14031219 C-141.23174334 204.15239131 -143.65674571 204.15810397 -146.08183002 204.16252899 C-147.22246151 204.17027092 -147.22246151 204.17027092 -148.38613605 204.17816925 C-150.20306198 204.17836512 -152.01986755 204.12684551 -153.83573627 204.06487274 C-155.59381111 202.30679791 -154.95820906 199.99091346 -154.96481758 197.64882225 C-154.96190474 196.86576353 -154.9589919 196.08270482 -154.95599079 195.27591705 C-154.95684522 194.45018505 -154.95769964 193.62445305 -154.95857996 192.77369887 C-154.96023729 189.98523724 -154.95470927 187.19683475 -154.94926167 184.4083786 C-154.94897982 182.41810864 -154.94913747 180.42783857 -154.94970417 178.43756866 C-154.94999226 173.01630414 -154.94409374 167.59506154 -154.93713021 162.17380214 C-154.93089852 156.51498064 -154.93029302 150.85615869 -154.9291048 145.19733429 C-154.92599094 134.47340782 -154.91777682 123.74949149 -154.90775532 113.0255695 C-154.89659588 100.82021761 -154.89108416 88.61486525 -154.88605988 76.40950954 C-154.87559425 51.29462498 -154.85799375 26.17974943 -154.83573627 1.06487274 C-135.10375218 0.93428876 -115.37176686 0.80389292 -95.63978004 0.67372131 C-86.47796603 0.61327658 -77.31615244 0.55277018 -68.15433979 0.49211884 C-60.16928998 0.43925783 -52.18423942 0.38651231 -44.19918793 0.3339057 C-39.970847 0.30604477 -35.74250647 0.27812585 -31.51416683 0.25006866 C-27.53421018 0.22366145 -23.55425254 0.19740866 -19.57429409 0.17127419 C-18.11380444 0.16165665 -16.65331515 0.15198275 -15.19282627 0.14224815 C-13.19772408 0.12895865 -11.20262041 0.11589213 -9.20751667 0.10283661 C-7.53307971 0.09177509 -7.53307971 0.09177509 -5.82481575 0.08049011 C-3.88305164 0.07034476 -1.9412827 0.04441045 0 0 Z " fill="#FEFEFE" transform="translate(812.8357362747192,839.9351272583008)"/>
<path d="M0 0 C2.7421875 1.8984375 2.7421875 1.8984375 5 4 C6.2065625 5.0828125 6.2065625 5.0828125 7.4375 6.1875 C13.2355587 12.55122296 23 24.32947289 23 33 C23.66 33 24.32 33 25 33 C26.4453125 35.16796875 26.4453125 35.16796875 28.125 38.1875 C28.74375 39.280625 29.3625 40.37375 30 41.5 C30.32613281 42.07621094 30.65226562 42.65242187 30.98828125 43.24609375 C33.22589449 47.12519933 35.63423663 50.90248224 38.0078125 54.69921875 C39.5315238 57.22379924 40.98241739 59.75376994 42.40234375 62.3359375 C44.94860663 66.95443527 47.66759255 71.4505028 50.4375 75.9375 C51.40524326 77.51283944 52.37269342 79.08835897 53.33984375 80.6640625 C53.79858887 81.41075195 54.25733398 82.15744141 54.72998047 82.92675781 C57.18399482 86.93281123 59.59318293 90.96549574 62 95 C62.99960901 96.6669012 63.99962473 98.33355855 65 100 C71 110 71 110 72.484375 112.49609375 C74.0293703 115.04852154 75.63185564 117.55588853 77.25 120.0625 C79.76085632 123.99230664 82.16824979 127.96145064 84.5 132 C87.3112828 136.86785881 90.2712831 141.61451463 93.30859375 146.34375 C97.80978763 153.4125995 101.95945668 160.66105397 106 168 C108.42481867 172.34986556 110.98005803 176.60132264 113.63671875 180.8125 C115.69415479 184.11383003 117.67901871 187.45787577 119.66796875 190.80078125 C120.73437277 192.56144243 121.85818696 194.28728044 123 196 C123 196.99 123 197.98 123 199 C123.66 199 124.32 199 125 199 C126.125 201.3125 126.125 201.3125 127 204 C126.34 204.99 125.68 205.98 125 207 C121.93641501 207.3289037 119.07988229 207.46804035 116.01171875 207.46875 C115.11636917 207.47636353 114.22101959 207.48397705 113.29853821 207.49182129 C111.40128368 207.5026398 109.50396951 207.50546831 107.60668945 207.50097656 C104.70877915 207.50000712 101.81354126 207.5415461 98.91601562 207.5859375 C97.07292219 207.59114661 95.22981955 207.59383266 93.38671875 207.59375 C92.52197433 207.61014526 91.65722992 207.62654053 90.76628113 207.64343262 C86.34584392 207.59290052 84.56721796 207.45167014 80.99902344 204.61035156 C79.1473598 202.1924244 77.79935444 200.02272863 76.5625 197.25 C74.58772889 193.08647329 72.33843792 189.39746759 69.734375 185.60546875 C53 160.46621622 53 160.46621622 53 156 C21.65 155.67 -9.7 155.34 -42 155 C-42 150.23710884 -40.42979597 147.89709658 -38 144 C-37.03900391 142.43185547 -37.03900391 142.43185547 -36.05859375 140.83203125 C-34.67842182 138.57998683 -33.29217478 136.33207518 -31.90234375 134.0859375 C-30.68759902 132.11540703 -29.50887856 130.12189853 -28.37890625 128.1015625 C-27.92386719 127.40804687 -27.46882812 126.71453125 -27 126 C-26.34 126 -25.68 126 -25 126 C-25 125.34 -25 124.68 -25 124 C3.215 123.505 3.215 123.505 32 123 C30.02 119.535 30.02 119.535 28 116 C28 115.01 28 114.02 28 113 C27.34 113 26.68 113 26 113 C22.2005277 106.41424802 22.2005277 106.41424802 21.109375 104.16015625 C19.60603081 101.23286986 17.8644674 98.48049388 16.125 95.6875 C12.64418681 90.07293271 9.33322684 84.39980831 6.125 78.625 C4.11825912 75.10536462 1.86147418 71.77718119 -0.40625 68.421875 C-3.07586944 64.36510037 -5.53663955 60.18421864 -8 56 C-11.13672119 60.61098015 -14.17930551 65.21169105 -16.890625 70.08984375 C-18.24672431 72.42481755 -19.71626909 74.67328913 -21.1875 76.9375 C-25.0480424 82.94927337 -28.51843028 89.15478233 -31.984375 95.3984375 C-33.59982198 98.30204805 -35.27300056 101.16084908 -37 104 C-37.64195312 105.06992187 -38.28390625 106.13984375 -38.9453125 107.2421875 C-39.29537354 107.82556885 -39.64543457 108.4089502 -40.00610352 109.01000977 C-40.77501098 110.29163406 -41.54371742 111.57337898 -42.31225586 112.85522461 C-44.30656931 116.18093838 -46.30362767 119.50491461 -48.30859375 122.82421875 C-52.73063085 130.15358308 -57.05447835 137.52827659 -61.2734375 144.9765625 C-65.52989061 152.43017044 -65.52989061 152.43017044 -68.0625 155.5 C-69.99016256 157.98730653 -70.90383538 160.07689436 -72 163 C-72.98811258 164.67374171 -73.99023403 166.33923197 -75 168 C-76.16970541 170.06077816 -77.33605176 172.12346467 -78.5 174.1875 C-83.09358189 182.28326132 -87.95556061 190.21381279 -92.85791016 198.12548828 C-93.84056055 199.73831208 -94.77482613 201.38043735 -95.69921875 203.02734375 C-96.12847656 203.67832031 -96.55773437 204.32929687 -97 205 C-97.66 205 -98.32 205 -99 205 C-99 205.66 -99 206.32 -99 207 C-104.65996416 207.07402368 -110.31964811 207.12854173 -115.97998047 207.16479492 C-117.90646267 207.17990395 -119.83291035 207.20039214 -121.75927734 207.22631836 C-124.52450057 207.26260925 -127.28927004 207.27970479 -130.0546875 207.29296875 C-131.3516304 207.31619453 -131.3516304 207.31619453 -132.67477417 207.33988953 C-135.10107422 207.34057617 -135.10107422 207.34057617 -139 207 C-139.66 206.01 -140.32 205.02 -141 204 C-140.68289063 203.47535156 -140.36578125 202.95070313 -140.0390625 202.41015625 C-136.80590989 197.0424084 -133.61159045 191.65278793 -130.4375 186.25 C-120.86310073 169.95665975 -111.24345914 153.69230909 -101.50146484 137.49853516 C-99.9526636 134.92122914 -98.40749102 132.34177813 -96.86328125 129.76171875 C-90.1314137 118.51639228 -83.39981314 107.2763992 -76.3125 96.25 C-74.30315477 93.11180914 -72.39433814 89.96651231 -70.625 86.6875 C-68.44332281 82.66367817 -65.9956587 78.83368952 -63.5 75 C-60.64124023 70.60208629 -57.91265839 66.18506262 -55.41796875 61.5703125 C-49.94773393 51.65457004 -44.02134931 41.97856468 -38.125 32.3125 C-37.67302246 31.5707251 -37.22104492 30.8289502 -36.75537109 30.06469727 C-34.81474231 26.89625732 -32.84613442 23.76974341 -30.78125 20.6796875 C-28.92203865 17.88271604 -27.47364315 15.01427008 -26 12 C-25.34 11.01 -24.68 10.02 -24 9 C-23.34 9 -22.68 9 -22 9 C-21.90203125 8.39671875 -21.8040625 7.7934375 -21.703125 7.171875 C-20.60610502 3.78330218 -18.58139225 2.73560524 -15.58984375 0.98828125 C-10.59203985 -0.91887469 -5.22392044 -0.96986999 0 0 Z " fill="#FEFEFE" transform="translate(994,837)"/>
<path d="M0 0 C2.62476861 0.10860888 5.24977945 0.21152073 7.875 0.30859375 C14.25427939 0.55675911 20.62697491 0.87515018 27 1.25 C27 2.24 27 3.23 27 4.25 C25.1015625 5.85546875 25.1015625 5.85546875 22.625 7.4375 C21.40683594 8.23220703 21.40683594 8.23220703 20.1640625 9.04296875 C18 10.25 18 10.25 16 10.25 C15.67 11.24 15.34 12.23 15 13.25 C13 14.25 11 15.25 9 16.25 C7.8574042 17.41784654 6.71572415 18.58660865 5.57958984 19.76074219 C2.23473837 22.91431159 -1.59301921 25.49847459 -5.3125 28.1875 C-6.95465699 29.38379905 -8.59658627 30.58041076 -10.23828125 31.77734375 C-11.03556641 32.35709961 -11.83285156 32.93685547 -12.65429688 33.53417969 C-15.5250251 35.63404209 -18.37170277 37.76446689 -21.2121582 39.9050293 C-29.64639681 46.25 -29.64639681 46.25 -32 46.25 C-32 46.91 -32 47.57 -32 48.25 C-33.0725 48.8275 -34.145 49.405 -35.25 50 C-37.60215728 51.33194448 -39.18983513 52.43983513 -41.125 54.375 C-43.26144795 56.51144795 -45.15822581 57.30274194 -48 58.25 C-48 58.91 -48 59.57 -48 60.25 C-49.40528991 61.23328093 -50.81807271 62.20758378 -52.26660156 63.12597656 C-55.09299623 64.95875418 -57.72072426 67.05514103 -60.375 69.125 C-61.53100845 70.01984338 -62.68725721 70.91437642 -63.84375 71.80859375 C-64.8853125 72.61425781 -65.926875 73.41992188 -67 74.25 C-78.18121969 82.78193816 -89.61689745 90.99074264 -101 99.25 C-85.06054767 112.08314174 -68.73513196 124.45981903 -52.375 136.75 C-51.7361084 137.23033691 -51.0972168 137.71067383 -50.43896484 138.20556641 C-49.82746582 138.66366699 -49.2159668 139.12176758 -48.5859375 139.59375 C-47.70373535 140.25503906 -47.70373535 140.25503906 -46.80371094 140.9296875 C-45.54536765 141.85079206 -44.27107015 142.75032218 -42.98535156 143.6328125 C-41.29262638 144.79470314 -39.64199063 146.01745176 -38 147.25 C-38 147.91 -38 148.57 -38 149.25 C-37.30648438 149.48074219 -36.61296875 149.71148438 -35.8984375 149.94921875 C-32.39968925 151.5194117 -29.59675185 153.68457647 -26.625 156.0625 C-25.47341618 156.96841476 -24.32107931 157.87337312 -23.16796875 158.77734375 C-22.62060059 159.20772949 -22.07323242 159.63811523 -21.50927734 160.08154297 C-19.69166535 161.48870748 -17.82755709 162.81712969 -15.9375 164.125 C-13.33119233 166.01041406 -11.26317266 167.98682734 -9 170.25 C-8.2678125 170.68441406 -7.535625 171.11882812 -6.78125 171.56640625 C-3.55414638 173.51989173 -0.59792038 175.75061517 2.375 178.0625 C2.9515332 178.50754883 3.52806641 178.95259766 4.12207031 179.41113281 C7.06968569 181.69965407 9.95445338 184.02600686 12.75 186.5 C15.22330972 188.67872196 17.8049504 190.50614496 20.5625 192.3125 C24.2997218 194.76345197 27.79236154 197.12460868 31 200.25 C31 201.57 31 202.89 31 204.25 C23.49303948 204.42834101 15.98663044 204.55043051 8.47802734 204.63452148 C5.92703843 204.66959718 3.37618895 204.71727181 0.82568359 204.77807617 C-2.85354104 204.86355601 -6.53089671 204.9028201 -10.2109375 204.93359375 C-11.34050873 204.96972275 -12.47007996 205.00585175 -13.63388062 205.04307556 C-22.74167855 205.0475328 -28.20491495 201.97601524 -34.63241577 195.64109802 C-35.08371857 195.18203568 -35.53502136 194.72297333 -36 194.25 C-40.30467793 190.64177599 -44.64309716 187.03761538 -49.375 184 C-51.95603597 182.27930935 -53.81318709 180.43681291 -56 178.25 C-57.91127193 176.74984835 -59.8611089 175.30944353 -61.81640625 173.8671875 C-66.78495033 170.18744287 -71.62721354 166.33963634 -76.47265625 162.5 C-77.08544434 162.0155542 -77.69823242 161.5311084 -78.32958984 161.03198242 C-79.53852093 160.07579895 -80.74596045 159.11772559 -81.95166016 158.1574707 C-84.65986994 156.01671369 -87.35553321 154.01455038 -90.23828125 152.10546875 C-93 150.25 -93 150.25 -94.43554688 148.81201172 C-96.11483821 147.135341 -97.87199664 145.79419148 -99.79296875 144.40234375 C-100.50517578 143.87962891 -101.21738281 143.35691406 -101.95117188 142.81835938 C-103.45157024 141.7241824 -104.95420822 140.63307041 -106.45898438 139.54492188 C-107.16732422 139.02349609 -107.87566406 138.50207031 -108.60546875 137.96484375 C-109.25668701 137.49167725 -109.90790527 137.01851074 -110.57885742 136.53100586 C-111.282323 135.89690796 -111.282323 135.89690796 -112 135.25 C-112 134.59 -112 133.93 -112 133.25 C-112.68449219 133.03859375 -113.36898438 132.8271875 -114.07421875 132.609375 C-117.91619324 130.82431876 -120.67470349 128.30886829 -123.8125 125.5 C-127.65604444 122.12046999 -131.46199416 118.79951549 -135.625 115.8125 C-139.53712606 112.93913975 -142.43543003 110.3200899 -143.75 105.5 C-143.87375 103.89125 -143.87375 103.89125 -144 102.25 C-144.06316406 101.54488281 -144.12632813 100.83976563 -144.19140625 100.11328125 C-144.48083475 94.61413968 -143.59573794 90.56107042 -140 86.25 C-135.99564234 82.2236 -132.12153012 78.73481016 -127 76.25 C-126.01 75.26 -126.01 75.26 -125 74.25 C-123 72.25 -123 72.25 -121.0625 71.3125 C-118.82363016 70.29663922 -118.82363016 70.29663922 -116.89453125 68.09375 C-113.44164243 64.57374102 -109.54453847 61.66484172 -105.625 58.6875 C-104.89539062 58.12353516 -104.16578125 57.55957031 -103.4140625 56.97851562 C-100.07902559 54.43257227 -96.78098118 52.04140394 -93.11328125 49.99609375 C-89.7603227 48.11557622 -87.67664178 45.99192573 -85 43.25 C-83.22571848 41.84925143 -81.40315876 40.52535268 -79.578125 39.19140625 C-75.45487493 36.086474 -71.45996809 32.8203957 -67.45556641 29.56420898 C-63.75429566 26.57583643 -59.97716637 23.8685751 -56 21.25 C-53.62371883 19.41174476 -51.28812552 17.53086351 -48.953125 15.640625 C-47 14.25 -47 14.25 -45 14.25 C-45 13.59 -45 12.93 -45 12.25 C-32.21627585 -2.23989836 -18.10492778 -1.06755067 0 0 Z " fill="#FEFEFE" transform="translate(1579,839.75)"/>
<path d="M0 0 C12.54 0 25.08 0 38 0 C38.04509767 26.17260503 38.08196046 52.34517875 38.10362434 78.51781273 C38.11394935 90.66944136 38.12803299 102.82104418 38.15087891 114.97265625 C38.17077539 125.56050401 38.18370752 136.14833309 38.18817699 146.73619902 C38.19079073 152.34554266 38.19695942 157.95483284 38.21146011 163.56415939 C38.22498498 168.83849111 38.22923302 174.11274709 38.22621536 179.3870945 C38.22676782 181.32777759 38.23077548 183.26846309 38.23841095 185.20913124 C38.24829258 187.84909995 38.2459939 190.4887789 38.24050903 193.12875366 C38.24633472 193.90500859 38.2521604 194.68126351 38.25816262 195.48104131 C38.22824242 200.77175758 38.22824242 200.77175758 36 203 C33.35883887 203.18737649 30.8244602 203.25569866 28.18359375 203.23046875 C27.41193375 203.23001053 26.64027374 203.22955231 25.8452301 203.2290802 C24.21361758 203.22605787 22.58200795 203.21817213 20.95043945 203.20581055 C18.44407 203.18754787 15.93806967 203.18530088 13.43164062 203.18554688 C11.84895512 203.18063198 10.26627213 203.17480379 8.68359375 203.16796875 C7.55237343 203.16629951 7.55237343 203.16629951 6.39830017 203.16459656 C1.11605119 203.11605119 1.11605119 203.11605119 0 202 C-0.09779295 199.39498464 -0.12994636 196.81649978 -0.12025452 194.21104431 C-0.12110894 193.38531231 -0.12196337 192.55958031 -0.12284368 191.70882612 C-0.12450102 188.9203645 -0.11897299 186.13196201 -0.11352539 183.34350586 C-0.11324355 181.3532359 -0.1134012 179.36296583 -0.1139679 177.37269592 C-0.11425598 171.9514314 -0.10835746 166.5301888 -0.10139394 161.1089294 C-0.09516224 155.4501079 -0.09455675 149.79128595 -0.09336853 144.13246155 C-0.09025467 133.40853508 -0.08204054 122.68461875 -0.07201904 111.96069676 C-0.0608596 99.75534487 -0.05534788 87.54999251 -0.05032361 75.3446368 C-0.03985797 50.22975094 -0.02151182 25.11487899 0 0 Z " fill="#FEFEFE" transform="translate(1390,841)"/>
<path d="M0 0 C4.05989056 0.79605697 5.37768501 2.22478735 7.875 5.41796875 C9.74287054 8.55888201 10.62884188 11.74916392 11.44921875 15.29296875 C12.27805262 17.91103129 13.51449793 19.46669962 15.1875 21.625 C15.86677319 23.10121575 16.48970299 24.60429997 17.0625 26.125 C17.39765625 26.98996094 17.7328125 27.85492187 18.078125 28.74609375 C18.44421875 29.69613281 18.8103125 30.64617187 19.1875 31.625 C20.05260721 33.81643121 20.92763722 36.00397095 21.8125 38.1875 C22.21726562 39.19941406 22.62203125 40.21132812 23.0390625 41.25390625 C23.95721445 43.76403687 23.95721445 43.76403687 26.1875 44.625 C26.29320312 43.94308594 26.39890625 43.26117187 26.5078125 42.55859375 C27.31971024 39.05436844 28.62375944 35.98371905 30.0625 32.6875 C30.57554687 31.50285156 31.08859375 30.31820313 31.6171875 29.09765625 C32.61186862 26.89797587 33.64534986 24.71509584 34.73046875 22.55859375 C36.18692738 19.62615292 37.41686723 16.66711793 38.625 13.625 C42.36086924 4.70103936 42.36086924 4.70103936 45.1875 1.625 C48.9375 0.75 48.9375 0.75 52.1875 0.625 C52.6825 2.11 52.6825 2.11 53.1875 3.625 C53.8475 3.625 54.5075 3.625 55.1875 3.625 C57.5567441 9.13406758 59.51874584 14.44261296 60.6875 20.328125 C61.42244676 23.70428667 62.46532075 26.97228651 63.50390625 30.265625 C64.1875 32.625 64.1875 32.625 64.71484375 35.265625 C65.12670657 37.69266267 65.12670657 37.69266267 66.1875 40.125 C67.1875 42.625 67.1875 42.625 67.6171875 44.8125 C68.46061178 48.97185264 69.6869807 53.03303147 70.90234375 57.09765625 C72.08728668 61.31741704 72.08575839 63.13370807 71.1875 67.625 C67.5575 67.625 63.9275 67.625 60.1875 67.625 C59.8575 66.635 59.5275 65.645 59.1875 64.625 C58.5275 64.625 57.8675 64.625 57.1875 64.625 C56.919375 63.34625 56.65125 62.0675 56.375 60.75 C55.41886208 56.42006113 54.2042883 52.21191419 52.87109375 47.984375 C52.1875 45.625 52.1875 45.625 51.6953125 43.15234375 C50.98739875 39.62911146 49.88215053 36.25816699 48.80859375 32.83203125 C48.1875 30.625 48.1875 30.625 48.1875 28.625 C47.5275 28.625 46.8675 28.625 46.1875 28.625 C46.105 29.264375 46.0225 29.90375 45.9375 30.5625 C44.61539387 35.96110003 42.07898381 40.87632021 39.5625 45.8125 C38.15287693 48.69581991 37.15945036 51.57029887 36.1875 54.625 C35.6925 55.615 35.6925 55.615 35.1875 56.625 C34.82914063 57.388125 34.47078125 58.15125 34.1015625 58.9375 C33.67617188 59.824375 33.25078125 60.71125 32.8125 61.625 C32.39226563 62.511875 31.97203125 63.39875 31.5390625 64.3125 C30.1875 66.625 30.1875 66.625 27.1875 68.625 C22.98535419 68.625 21.5340605 67.96350095 18.5 65 C16.01155882 61.90441338 14.67226398 58.27061372 13.1875 54.625 C12.91349365 53.95533203 12.6394873 53.28566406 12.35717773 52.59570312 C11.19324004 49.74230736 10.03204661 46.88786293 8.88085938 44.02929688 C6.87047501 39.09960158 4.61763891 34.36243564 2.1875 29.625 C-0.35018361 32.16268361 -0.18000133 34.10027142 -0.5390625 37.5546875 C-0.9155306 40.40508881 -1.83949879 42.92221887 -2.8125 45.625 C-4.74016004 51.57380032 -6.24761011 57.40614154 -7.1875 63.59375 C-7.8125 65.625 -7.8125 65.625 -10.8125 67.625 C-13.29296875 67.8203125 -13.29296875 67.8203125 -16 67.75 C-16.90105469 67.73195313 -17.80210937 67.71390625 -18.73046875 67.6953125 C-19.41753906 67.67210937 -20.10460937 67.64890625 -20.8125 67.625 C-22.39956802 64.62720485 -23.0048251 63.25326199 -21.9921875 59.9453125 C-21.60289062 58.84960938 -21.21359375 57.75390625 -20.8125 56.625 C-20.09358142 53.97111241 -19.45566394 51.29815012 -18.8125 48.625 C-17.66865761 43.87090507 -16.37334701 39.26348487 -14.8125 34.625 C-14.03403524 31.60066441 -13.31336317 28.56614503 -12.59375 25.52734375 C-11.85352867 22.7774215 -10.87291461 20.26320894 -9.8125 17.625 C-9.44463267 16.13309359 -9.10976581 14.63256232 -8.8125 13.125 C-6.3 1.4 -6.3 1.4 0 0 Z M-7.8125 10.625 C-6.8125 12.625 -6.8125 12.625 -6.8125 12.625 Z M48.1875 26.625 C49.1875 28.625 49.1875 28.625 49.1875 28.625 Z M61.1875 27.625 C62.1875 29.625 62.1875 29.625 62.1875 29.625 Z M50.1875 33.625 C51.1875 35.625 51.1875 35.625 51.1875 35.625 Z M65.1875 42.625 C66.1875 44.625 66.1875 44.625 66.1875 44.625 Z M54.1875 48.625 C55.1875 50.625 55.1875 50.625 55.1875 50.625 Z M67.1875 49.625 C68.1875 51.625 68.1875 51.625 68.1875 51.625 Z M69.1875 57.625 C70.1875 59.625 70.1875 59.625 70.1875 59.625 Z " fill="#FEFEFE" transform="translate(718.8125,1121.375)"/>
<path d="M0 0 C1.51187635 -0.01646678 3.02367789 -0.04363304 4.53515625 -0.08203125 C17.26573474 -0.40319315 26.04448454 1.7377576 35.6027832 10.58447266 C37.77672087 12.95223127 39.03480455 15.37741665 40.22387695 18.35009766 C40.59512695 19.01009766 40.96637695 19.67009766 41.34887695 20.35009766 C44.73461968 28.08893818 43.79736837 37.14592889 41.19262695 44.93603516 C38.00786913 52.87224619 32.76826036 59.73988711 24.8840332 63.45166016 C20.91550644 64.86474623 17.46611425 65.61523749 13.22387695 65.35009766 C12.89387695 65.68009766 12.56387695 66.01009766 12.22387695 66.35009766 C10.8203896 66.44869897 9.41207218 66.48088702 8.00512695 66.48291016 C6.73088867 66.48484375 6.73088867 66.48484375 5.4309082 66.48681641 C4.53758789 66.48294922 3.64426758 66.47908203 2.72387695 66.47509766 C1.83055664 66.47896484 0.93723633 66.48283203 0.0168457 66.48681641 C-0.83264648 66.48552734 -1.68213867 66.48423828 -2.55737305 66.48291016 C-3.34176758 66.48178223 -4.12616211 66.4806543 -4.93432617 66.47949219 C-6.77612305 66.35009766 -6.77612305 66.35009766 -7.77612305 65.35009766 C-8.82799805 65.39134766 -9.87987305 65.43259766 -10.96362305 65.47509766 C-18.5249454 65.22718545 -25.17654761 60.13521822 -30.29174805 54.75634766 C-36.79635318 46.44926159 -37.58557251 36.56773845 -36.77612305 26.35009766 C-36.29846851 23.85976206 -35.66277888 21.73298522 -34.77612305 19.35009766 C-34.11612305 19.35009766 -33.45612305 19.35009766 -32.77612305 19.35009766 C-33.10612305 18.36009766 -33.43612305 17.37009766 -33.77612305 16.35009766 C-30.42408679 10.36274343 -26.04872512 6.055926 -19.77612305 3.35009766 C-19.11612305 3.68009766 -18.45612305 4.01009766 -17.77612305 4.35009766 C-17.44612305 3.36009766 -17.11612305 2.37009766 -16.77612305 1.35009766 C-11.41252812 -0.43776732 -5.61774062 0.04470511 0 0 Z M-19.77612305 21.35009766 C-23.43592453 28.27811693 -23.25506517 34.77051926 -21.77612305 42.35009766 C-21.11612305 42.35009766 -20.45612305 42.35009766 -19.77612305 42.35009766 C-19.6764624 42.9437915 -19.57680176 43.53748535 -19.47412109 44.14916992 C-18.37432853 47.61703629 -16.32964681 49.05395797 -13.41918945 51.11523438 C-8.04823124 53.62459209 -2.27383925 53.08269644 3.53637695 52.91259766 C4.81061523 52.91066406 6.08485352 52.90873047 7.39770508 52.90673828 C13.59975187 53.22982082 13.59975187 53.22982082 18.98242188 50.88110352 C19.39210205 50.37587158 19.80178223 49.87063965 20.22387695 49.35009766 C20.88387695 49.02009766 21.54387695 48.69009766 22.22387695 48.35009766 C22.22387695 47.69009766 22.22387695 47.03009766 22.22387695 46.35009766 C22.88387695 46.35009766 23.54387695 46.35009766 24.22387695 46.35009766 C27.37672872 40.70429333 30.23886612 35.53692795 28.63012695 28.90087891 C26.55535418 22.91802121 23.7354843 18.62563623 18.22387695 15.35009766 C13.25230216 13.81902621 8.1288244 14.0861072 2.97387695 14.03759766 C1.45600586 13.9940918 1.45600586 13.9940918 -0.0925293 13.94970703 C-8.11282351 13.88209106 -14.2414249 15.26625446 -19.77612305 21.35009766 Z " fill="#FEFEFE" transform="translate(870.776123046875,1122.64990234375)"/>
<path d="M0 0 C0.71873795 -0.0033284 1.43747589 -0.0066568 2.17799377 -0.01008606 C3.6968624 -0.01514418 5.21574211 -0.01749473 6.73461914 -0.01733398 C9.05438597 -0.01951992 11.37367669 -0.03768535 13.69335938 -0.05664062 C15.17057129 -0.05957492 16.64778547 -0.06155947 18.125 -0.0625 C18.81677841 -0.06968552 19.50855682 -0.07687103 20.22129822 -0.08427429 C23.86275763 -0.06705679 26.53162646 0.17407328 29.62890625 2.16796875 C29.62890625 2.82796875 29.62890625 3.48796875 29.62890625 4.16796875 C30.61890625 3.83796875 31.60890625 3.50796875 32.62890625 3.16796875 C34.78474401 4.77337985 36.6806661 6.3431 38.62890625 8.16796875 C39.33015625 8.78671875 40.03140625 9.40546875 40.75390625 10.04296875 C47.33432209 17.50077337 49.01008023 25.57647649 48.81640625 35.30859375 C48.3785772 41.98548675 45.72908682 47.37394197 42.62890625 53.16796875 C41.96890625 53.16796875 41.30890625 53.16796875 40.62890625 53.16796875 C39.96890625 54.81796875 39.30890625 56.46796875 38.62890625 58.16796875 C37.63890625 58.16796875 36.64890625 58.16796875 35.62890625 58.16796875 C35.29890625 59.15796875 34.96890625 60.14796875 34.62890625 61.16796875 C29.86164816 64.16883226 25.27143383 65.59115832 19.62890625 65.16796875 C19.29890625 65.49796875 18.96890625 65.82796875 18.62890625 66.16796875 C17.14018765 66.25466307 15.64746125 66.27500369 14.15625 66.265625 C13.25712891 66.26240234 12.35800781 66.25917969 11.43164062 66.25585938 C10.01334961 66.24329102 10.01334961 66.24329102 8.56640625 66.23046875 C7.61701172 66.22595703 6.66761719 66.22144531 5.68945312 66.21679688 C3.3358756 66.20496985 0.98242148 66.188489 -1.37109375 66.16796875 C-1.37109375 65.50796875 -1.37109375 64.84796875 -1.37109375 64.16796875 C-2.40234375 64.39484375 -3.43359375 64.62171875 -4.49609375 64.85546875 C-8.9934336 65.21815745 -10.58348409 64.5050045 -14.37109375 62.16796875 C-15.48484375 61.48734375 -16.59859375 60.80671875 -17.74609375 60.10546875 C-19.04546875 59.14640625 -19.04546875 59.14640625 -20.37109375 58.16796875 C-20.37109375 57.50796875 -20.37109375 56.84796875 -20.37109375 56.16796875 C-20.97695312 55.92304687 -21.5828125 55.678125 -22.20703125 55.42578125 C-26.95712653 52.66489554 -29.21347034 46.34983467 -30.68359375 41.23046875 C-32.12453249 34.35513246 -32.04517257 27.70460587 -29.37109375 21.16796875 C-29.10296875 20.22695312 -28.83484375 19.2859375 -28.55859375 18.31640625 C-26.03901841 11.63621638 -20.3561947 5.82085312 -13.99609375 2.60546875 C-9.0736345 0.65345905 -5.23553262 0.00839752 0 0 Z M-14.43359375 20.66796875 C-15.26426515 22.88309247 -15.96077438 24.84282563 -16.37109375 27.16796875 C-16.61859375 28.21984375 -16.86609375 29.27171875 -17.12109375 30.35546875 C-17.51378628 36.34402978 -15.71242495 40.96435321 -12.62109375 46.04296875 C-6.27442984 52.03704022 1.46450426 51.81501696 9.75390625 52.10546875 C10.92050781 52.17314453 12.08710937 52.24082031 13.2890625 52.31054688 C14.97708984 52.37725586 14.97708984 52.37725586 16.69921875 52.4453125 C18.22699951 52.51093384 18.22699951 52.51093384 19.78564453 52.57788086 C24.89494072 51.8412753 28.42081109 47.86795885 31.55078125 43.92578125 C34.57232715 38.99934772 35.024693 33.92091077 33.81640625 28.35546875 C33.43638288 26.95524842 33.04117312 25.55903696 32.62890625 24.16796875 C32.48001953 23.1315625 32.48001953 23.1315625 32.328125 22.07421875 C31.32422927 19.33734102 29.80607366 18.78959022 27.25390625 17.48046875 C26.46242188 17.06410156 25.6709375 16.64773438 24.85546875 16.21875 C19.58920362 13.73344242 14.7858188 13.91194748 9.06640625 13.85546875 C8.11443359 13.82646484 7.16246094 13.79746094 6.18164062 13.76757812 C-1.28188818 13.7015292 -9.42189408 14.59318127 -14.43359375 20.66796875 Z " fill="#FEFEFE" transform="translate(1163.37109375,1122.83203125)"/>
<path d="M0 0 C2.07373047 1.36889648 2.07373047 1.36889648 4.2421875 3.43359375 C5.11069336 4.25585449 5.97919922 5.07811523 6.87402344 5.92529297 C7.91816679 6.94800368 8.95994774 7.97312911 10 9 C10.92891052 9.91280731 10.92891052 9.91280731 11.87658691 10.84405518 C16.99304538 15.88347808 22.06140393 20.97005929 27.125 26.0625 C28.66903625 27.61156199 30.21330526 29.160392 31.7578125 30.70898438 C35.50789568 34.46998643 39.25509688 38.23384039 43 42 C43.01981934 40.79875488 43.03963867 39.59750977 43.06005859 38.35986328 C43.1359962 33.91303146 43.22473132 29.46653195 43.31738281 25.02001953 C43.35572168 23.09365386 43.39056582 21.1672154 43.421875 19.24072266 C43.46741945 16.47532082 43.52543037 13.71042231 43.5859375 10.9453125 C43.59748871 10.0806839 43.60903992 9.2160553 43.62094116 8.32522583 C43.77225659 2.22774341 43.77225659 2.22774341 46 0 C48.6015625 -0.1953125 48.6015625 -0.1953125 51.625 -0.125 C53.12933594 -0.09792969 53.12933594 -0.09792969 54.6640625 -0.0703125 C55.43492188 -0.04710937 56.20578125 -0.02390625 57 0 C58.31878889 2.63757778 58.19087192 4.70212622 58.26879883 7.65551758 C58.30165482 8.84047318 58.3345108 10.02542877 58.36836243 11.24629211 C58.41225349 13.17592049 58.41225349 13.17592049 58.45703125 15.14453125 C58.50243294 17.1201429 58.50243294 17.1201429 58.54875183 19.13566589 C58.61078514 21.92736784 58.66769006 24.71913234 58.72241211 27.51098633 C58.79383697 31.08253368 58.88884104 34.65304698 58.98918629 38.22388172 C59.0619413 40.97322653 59.1165195 43.72272201 59.16626549 46.47257042 C59.20642773 48.42765229 59.26625008 50.38229834 59.32637024 52.33686829 C59.34346542 53.53128036 59.36056061 54.72569244 59.37817383 55.95629883 C59.40180496 57.00505692 59.4254361 58.053815 59.44978333 59.13435364 C58.88096643 62.75838321 57.52934695 64.39461879 55 67 C52.625 68.0625 52.625 68.0625 50 68 C43.98331393 64.65980002 39.46605088 59.72009541 34.6640625 54.859375 C33.78471039 53.97719299 32.90535828 53.09501099 31.99935913 52.18609619 C29.6777828 49.85525554 27.36060903 47.52015422 25.04553223 45.18286133 C22.67596154 42.79272463 20.30062271 40.40833519 17.92578125 38.0234375 C13.27855199 33.35420554 8.63708575 28.67930461 4 24 C3.97494385 25.26706787 3.9498877 26.53413574 3.92407227 27.83959961 C3.83018004 32.52297779 3.72991565 37.2062013 3.62768555 41.8894043 C3.58426759 43.91964104 3.54259774 45.94991592 3.50268555 47.98022461 C3.44514854 50.89188151 3.38140722 53.80334514 3.31640625 56.71484375 C3.29133751 58.08514992 3.29133751 58.08514992 3.26576233 59.48313904 C3.11387171 65.88612829 3.11387171 65.88612829 2 67 C0.35769636 67.1245486 -1.29052276 67.17568524 -2.9375 67.1875 C-3.83339844 67.20167969 -4.72929688 67.21585938 -5.65234375 67.23046875 C-8 67 -8 67 -10 65 C-10.27415466 62.51530457 -10.27415466 62.51530457 -10.30639648 59.34448242 C-10.32238388 58.15952682 -10.33837128 56.97457123 -10.35484314 55.75370789 C-10.36020584 54.46728897 -10.36556854 53.18087006 -10.37109375 51.85546875 C-10.38463646 49.8798571 -10.38463646 49.8798571 -10.39845276 47.86433411 C-10.41495624 45.0725357 -10.42264494 42.28085738 -10.42553711 39.48901367 C-10.43091412 35.91756358 -10.46855709 32.34724833 -10.51428127 28.77611828 C-10.55125203 25.36507358 -10.55256855 21.95420703 -10.55859375 18.54296875 C-10.57812607 17.26262253 -10.59765839 15.98227631 -10.61778259 14.66313171 C-10.56750437 4.78231452 -10.56750437 4.78231452 -7.77758789 1.65356445 C-4.7265146 -0.16281239 -3.46149608 -0.74391499 0 0 Z " fill="#FEFEFE" transform="translate(1271,1122)"/>
<path d="M0 0 C20.13 0 40.26 0 61 0 C61 3.96 61 7.92 61 12 C58.49502996 13.25248502 56.79146726 13.11374406 53.9921875 13.09765625 C53.00605469 13.09443359 52.01992188 13.09121094 51.00390625 13.08789062 C49.97136719 13.07951172 48.93882812 13.07113281 47.875 13.0625 C46.31458984 13.05573242 46.31458984 13.05573242 44.72265625 13.04882812 C42.14838038 13.03701952 39.57421854 13.02055075 37 13 C37.00444122 13.62196259 37.00888245 14.24392517 37.01345825 14.88473511 C37.0576024 21.34061391 37.08782918 27.79645005 37.10986328 34.25244141 C37.11993954 36.66391744 37.13360081 39.07538122 37.15087891 41.48681641 C37.1750559 44.94697085 37.18646669 48.4069642 37.1953125 51.8671875 C37.20563507 52.95055389 37.21595764 54.03392029 37.22659302 55.15011597 C37.22681961 56.65144577 37.22681961 56.65144577 37.22705078 58.18310547 C37.231492 59.06690887 37.23593323 59.95071228 37.24050903 60.86129761 C37 63 37 63 35 65 C32.46875 65.265625 32.46875 65.265625 29.5 65.25 C28.5203125 65.25515625 27.540625 65.2603125 26.53125 65.265625 C24 65 24 65 22 63 C21.75949097 60.86129761 21.75949097 60.86129761 21.77294922 58.18310547 C21.77310028 57.18221893 21.77325134 56.1813324 21.77340698 55.15011597 C21.78372955 54.06674957 21.79405212 52.98338318 21.8046875 51.8671875 C21.8075174 50.76021515 21.81034729 49.6532428 21.81326294 48.51272583 C21.82448481 44.96670863 21.84959309 41.42094125 21.875 37.875 C21.8850272 35.47526406 21.8941535 33.07552417 21.90234375 30.67578125 C21.92443068 24.78376849 21.95792793 18.89190209 22 13 C21.36908447 13.00523682 20.73816895 13.01047363 20.08813477 13.01586914 C17.24626653 13.03657826 14.40441412 13.04964066 11.5625 13.0625 C10.07266602 13.07506836 10.07266602 13.07506836 8.55273438 13.08789062 C7.60849609 13.09111328 6.66425781 13.09433594 5.69140625 13.09765625 C4.81685791 13.10289307 3.94230957 13.10812988 3.04125977 13.11352539 C1 13 1 13 0 12 C0 8.04 0 4.08 0 0 Z " fill="#FEFEFE" transform="translate(959,1124)"/>
<path d="M0 0 C1.95825873 -0.02694851 3.91662226 -0.04637218 5.875 -0.0625 C6.96554687 -0.07410156 8.05609375 -0.08570313 9.1796875 -0.09765625 C12 0 12 0 14 1 C14.06943237 9.0492212 14.12277646 17.09831782 14.15543652 25.14776421 C14.17110972 28.88523796 14.19237761 32.62250723 14.22631836 36.35986328 C14.25885367 39.9649164 14.27684054 43.56977252 14.28463173 47.17496109 C14.29018581 48.55213651 14.30103135 49.92930085 14.31719017 51.30639267 C14.33888435 53.23133631 14.34022471 55.15647712 14.34057617 57.08154297 C14.34723801 58.17852509 14.35389984 59.2755072 14.36076355 60.4057312 C14.24171158 61.2618399 14.12265961 62.11794861 14 63 C10.71737969 65.18841354 9.68209102 65.24854665 5.875 65.1875 C4.98554687 65.18105469 4.09609375 65.17460938 3.1796875 65.16796875 C1 65 1 65 0 64 C-0.09405142 62.0056827 -0.11743249 60.00800457 -0.11352539 58.01147461 C-0.11344986 56.73022202 -0.11337433 55.44896942 -0.11329651 54.12889099 C-0.10818909 52.72004152 -0.10297309 51.31119244 -0.09765625 49.90234375 C-0.09579202 48.46887766 -0.09436814 47.03541093 -0.09336853 45.60194397 C-0.08954372 41.82240043 -0.07971377 38.0428951 -0.06866455 34.2633667 C-0.05844963 30.40930702 -0.05387074 26.55524118 -0.04882812 22.70117188 C-0.03809146 15.13409713 -0.02101549 7.56705391 0 0 Z " fill="#FEFEFE" transform="translate(1069,1124)"/>
<path d="M0 0 C0.33 0 0.66 0 1 0 C1 66.33 1 132.66 1 201 C0.67 201 0.34 201 0 201 C0 134.67 0 68.34 0 0 Z " fill="#FFFFFF" transform="translate(656,841)"/>
<path d="M0 0 C50.49 0 100.98 0 153 0 C153 0.33 153 0.66 153 1 C102.51 1 52.02 1 0 1 C0 0.67 0 0.34 0 0 Z " fill="#FFFFFF" transform="translate(1138,839)"/>
<path d="M0 0 C50.49 0 100.98 0 153 0 C153 0.33 153 0.66 153 1 C102.51 1 52.02 1 0 1 C0 0.67 0 0.34 0 0 Z " fill="#FFFFFF" transform="translate(469,839)"/>
<path d="M0 0 C49.17 0 98.34 0 149 0 C149 0.33 149 0.66 149 1 C99.83 1 50.66 1 0 1 C0 0.67 0 0.34 0 0 Z " fill="#FFFFFF" transform="translate(659,839)"/>
<path d="M0 0 C31.02 0 62.04 0 94 0 C94 0.33 94 0.66 94 1 C62.98 1 31.96 1 0 1 C0 0.67 0 0.34 0 0 Z " fill="#FFFFFF" transform="translate(953,993)"/>
<path d="M0 0 C0.33 0 0.66 0 1 0 C1 20.46 1 40.92 1 62 C0.67 62 0.34 62 0 62 C0 41.54 0 21.08 0 0 Z " fill="#FFFFFF" transform="translate(1067,1125)"/>
<path d="M0 0 C17.82 0 35.64 0 54 0 C54 0.33 54 0.66 54 1 C36.18 1 18.36 1 0 1 C0 0.67 0 0.34 0 0 Z " fill="#FFFFFF" transform="translate(1551,839)"/>
<path d="M0 0 C11.55 0 23.1 0 35 0 C35 0.33 35 0.66 35 1 C23.45 1 11.9 1 0 1 C0 0.67 0 0.34 0 0 Z " fill="#FFFFFF" transform="translate(1391,839)"/>
<path d="M0 0 C0.33 0 0.66 0 1 0 C1 3.63 1 7.26 1 11 C0.67 11 0.34 11 0 11 C0 7.37 0 3.74 0 0 Z " fill="#FFFFFF" transform="translate(957,1124)"/>
<path d="M0 0 C0.33 0 0.66 0 1 0 C1 2.64 1 5.28 1 8 C0.67 8 0.34 8 0 8 C0 5.36 0 2.72 0 0 Z " fill="#FFFFFF" transform="translate(874,901)"/>
<path d="M0 0 C0.33 0 0.66 0 1 0 C1 2.31 1 4.62 1 7 C0.67 7 0.34 7 0 7 C0 4.69 0 2.38 0 0 Z " fill="#FFFFFF" transform="translate(874,917)"/>
<path d="M0 0 C0.33 0 0.66 0 1 0 C1 1.98 1 3.96 1 6 C0.67 6 0.34 6 0 6 C0 4.02 0 2.04 0 0 Z " fill="#FFFFFF" transform="translate(596,978)"/>
<path d="M0 0 C3 1 3 1 3 1 Z " fill="#FFFFFF" transform="translate(885,1188)"/>
<path d="M0 0 C3 1 3 1 3 1 Z " fill="#FFFFFF" transform="translate(859,1188)"/>
<path d="M0 0 C2 1 2 1 2 1 Z " fill="#FFFFFF" transform="translate(1184,1188)"/>
<path d="M0 0 C2 1 2 1 2 1 Z " fill="#FFFFFF" transform="translate(1158,1188)"/>
<path d="M0 0 C2 1 2 1 2 1 Z " fill="#FFFFFF" transform="translate(579,1003)"/>
<path d="M0 0 C2 1 2 1 2 1 Z " fill="#FFFFFF" transform="translate(808,949)"/>
<path d="" fill="#FFFFFF" transform="translate(0,0)"/>
<path d="" fill="#FFFFFF" transform="translate(0,0)"/>
<path d="" fill="#FFFFFF" transform="translate(0,0)"/>
<path d="" fill="#FFFFFF" transform="translate(0,0)"/>
<path d="" fill="#FFFFFF" transform="translate(0,0)"/>
<path d="" fill="#FFFFFF" transform="translate(0,0)"/>
<path d="" fill="#FFFFFF" transform="translate(0,0)"/>
<path d="" fill="#FFFFFF" transform="translate(0,0)"/>
<path d="" fill="#FFFFFF" transform="translate(0,0)"/>
<path d="" fill="#FFFFFF" transform="translate(0,0)"/>
<path d="" fill="#FFFFFF" transform="translate(0,0)"/>
<path d="" fill="#FFFFFF" transform="translate(0,0)"/>
<path d="" fill="#FFFFFF" transform="translate(0,0)"/>
<path d="" fill="#FFFFFF" transform="translate(0,0)"/>
<path d="" fill="#FFFFFF" transform="translate(0,0)"/>
<path d="" fill="#FFFFFF" transform="translate(0,0)"/>
<path d="" fill="#FFFFFF" transform="translate(0,0)"/>
<path d="" fill="#FFFFFF" transform="translate(0,0)"/>
<path d="" fill="#FFFFFF" transform="translate(0,0)"/>
<path d="" fill="#FFFFFF" transform="translate(0,0)"/>
</svg>
