<svg width="732" height="86" viewBox="0 0 732 86" fill="none" xmlns="http://www.w3.org/2000/svg">
<mask id="path-1-outside-1_12295_424" maskUnits="userSpaceOnUse" x="-0.0923767" y="-0.019104" width="330" height="86" fill="black">
<rect fill="white" x="-0.0923767" y="-0.019104" width="330" height="86"/>
<path d="M31.3822 1.9809C35.4168 1.9809 39.1524 2.50424 42.5893 3.55023C46.0261 4.52151 49.0148 6.09056 51.5551 8.25726C54.1699 10.3492 56.1873 13.0759 57.6068 16.4379C59.1011 19.7253 59.8481 23.7231 59.8481 28.4301H50.0981C50.0981 25.2174 49.5747 22.4899 48.5287 20.2485C47.4827 18.0072 46.064 16.2134 44.2709 14.8686C42.5525 13.449 40.5719 12.4409 38.3305 11.8432C36.0891 11.2455 33.7354 10.9467 31.2699 10.9467C25.8907 10.9468 21.6691 12.0676 18.6059 14.309C15.6176 16.5503 14.1235 19.4266 14.1234 22.9379C14.1234 24.731 14.4598 26.3001 15.1322 27.645C15.8046 28.9151 16.8128 30.0736 18.1576 31.1196C19.5025 32.1656 21.1843 33.1737 23.2016 34.145C25.2935 35.0415 27.7591 35.9755 30.5981 36.9467L35.8647 38.852C39.2268 40.1221 42.4025 41.43 45.391 42.7748C48.3794 44.0449 50.9944 45.539 53.2357 47.2573C55.4771 48.9757 57.2332 51.0305 58.5033 53.4213C59.7734 55.7374 60.4085 58.5018 60.4086 61.7143C60.4086 64.8523 59.8111 67.7668 58.6156 70.4565C57.4202 73.1461 55.6265 75.4998 53.2357 77.517C50.9197 79.4594 48.0059 80.9911 44.4945 82.1118C40.983 83.2324 36.8734 83.7924 32.1664 83.7924C28.2068 83.7924 24.3965 83.2324 20.7357 82.1118C17.1495 81.0658 13.9362 79.4591 11.0971 77.2924C8.3328 75.051 6.0918 72.2491 4.37344 68.8871C2.72974 65.4503 1.90762 61.3783 1.90762 56.6713H11.6576C11.6576 60.1082 12.2928 62.9851 13.5629 65.3012C14.9077 67.6172 16.5887 69.4852 18.6059 70.9047C20.6231 72.3243 22.8649 73.3324 25.3305 73.9301C27.7959 74.5278 30.2239 74.8266 32.6147 74.8266C38.4422 74.8266 42.8131 73.6314 45.727 71.2407C48.6408 68.7751 50.0981 65.7488 50.0981 62.1625C50.098 60.3696 49.724 58.8002 48.977 57.4555C48.2298 56.1109 47.1096 54.9154 45.6156 53.8696C44.1214 52.7489 42.2534 51.7031 40.0121 50.7319C37.7707 49.6859 35.155 48.6026 32.1664 47.4819L26.5629 45.4643C22.9768 44.1942 19.8018 42.9238 17.0375 41.6537C14.2733 40.309 11.9571 38.8149 10.0893 37.1713C8.22142 35.4529 6.80176 33.5099 5.83047 31.3432C4.85924 29.1766 4.37347 26.5992 4.37344 23.6108C4.37344 20.3981 4.97099 17.4836 6.16641 14.8686C7.4365 12.1791 9.22941 9.90037 11.5453 8.03265C13.8613 6.09019 16.6634 4.59622 19.9506 3.55023C23.3127 2.50424 27.1236 1.9809 31.3822 1.9809ZM106.225 3.66156C113.024 3.66165 118.329 5.79162 122.139 10.0502C125.949 14.3089 127.854 20.062 127.854 27.309C127.854 34.4813 125.949 40.1969 122.139 44.4555C118.329 48.7141 113.024 50.8441 106.225 50.8442H83.1381V82.1118H73.3881V3.66156H106.225ZM194.686 78.8618V82.1118H185.048L177.204 61.2661H143.358L135.288 82.1118H126.324V78.8618L155.574 3.66156H165.324L194.686 78.8618ZM236.069 3.66156C243.465 3.66157 249.106 5.75395 252.992 9.93793C256.877 14.1219 258.819 19.9124 258.819 27.309C258.819 33.5848 257.474 38.5158 254.785 42.102C252.095 45.6883 248.433 48.2664 243.801 49.8354L260.052 78.8618V82.1118H250.413L233.042 51.0678H212.982V82.1118H203.232V3.66156H236.069ZM281.498 38.4037H294.05L316.801 3.66156H325.878V6.91156L302.568 42.2143L327.335 78.8618V82.1118H317.698L294.163 47.0336H281.498V82.1118H271.748V3.66156H281.498V38.4037ZM146.272 52.9731H174.177L160.281 16.6625L146.272 52.9731ZM212.982 42.4389H234.388C239.02 42.4388 242.569 41.1685 245.035 38.6284C247.575 36.0881 248.845 32.3148 248.845 27.309C248.845 22.2285 247.575 18.4552 245.035 15.9897C242.569 13.5242 239.02 12.2915 234.388 12.2914H212.982V42.4389ZM83.1381 42.2143H104.543C108.503 42.2143 111.716 40.944 114.182 38.4037C116.647 35.8635 117.88 32.1652 117.88 27.309C117.88 22.3781 116.647 18.6423 114.182 16.102C111.716 13.5617 108.503 12.2914 104.543 12.2914H83.1381V42.2143Z"/>
</mask>
<path d="M31.3822 1.9809C35.4168 1.9809 39.1524 2.50424 42.5893 3.55023C46.0261 4.52151 49.0148 6.09056 51.5551 8.25726C54.1699 10.3492 56.1873 13.0759 57.6068 16.4379C59.1011 19.7253 59.8481 23.7231 59.8481 28.4301H50.0981C50.0981 25.2174 49.5747 22.4899 48.5287 20.2485C47.4827 18.0072 46.064 16.2134 44.2709 14.8686C42.5525 13.449 40.5719 12.4409 38.3305 11.8432C36.0891 11.2455 33.7354 10.9467 31.2699 10.9467C25.8907 10.9468 21.6691 12.0676 18.6059 14.309C15.6176 16.5503 14.1235 19.4266 14.1234 22.9379C14.1234 24.731 14.4598 26.3001 15.1322 27.645C15.8046 28.9151 16.8128 30.0736 18.1576 31.1196C19.5025 32.1656 21.1843 33.1737 23.2016 34.145C25.2935 35.0415 27.7591 35.9755 30.5981 36.9467L35.8647 38.852C39.2268 40.1221 42.4025 41.43 45.391 42.7748C48.3794 44.0449 50.9944 45.539 53.2357 47.2573C55.4771 48.9757 57.2332 51.0305 58.5033 53.4213C59.7734 55.7374 60.4085 58.5018 60.4086 61.7143C60.4086 64.8523 59.8111 67.7668 58.6156 70.4565C57.4202 73.1461 55.6265 75.4998 53.2357 77.517C50.9197 79.4594 48.0059 80.9911 44.4945 82.1118C40.983 83.2324 36.8734 83.7924 32.1664 83.7924C28.2068 83.7924 24.3965 83.2324 20.7357 82.1118C17.1495 81.0658 13.9362 79.4591 11.0971 77.2924C8.3328 75.051 6.0918 72.2491 4.37344 68.8871C2.72974 65.4503 1.90762 61.3783 1.90762 56.6713H11.6576C11.6576 60.1082 12.2928 62.9851 13.5629 65.3012C14.9077 67.6172 16.5887 69.4852 18.6059 70.9047C20.6231 72.3243 22.8649 73.3324 25.3305 73.9301C27.7959 74.5278 30.2239 74.8266 32.6147 74.8266C38.4422 74.8266 42.8131 73.6314 45.727 71.2407C48.6408 68.7751 50.0981 65.7488 50.0981 62.1625C50.098 60.3696 49.724 58.8002 48.977 57.4555C48.2298 56.1109 47.1096 54.9154 45.6156 53.8696C44.1214 52.7489 42.2534 51.7031 40.0121 50.7319C37.7707 49.6859 35.155 48.6026 32.1664 47.4819L26.5629 45.4643C22.9768 44.1942 19.8018 42.9238 17.0375 41.6537C14.2733 40.309 11.9571 38.8149 10.0893 37.1713C8.22142 35.4529 6.80176 33.5099 5.83047 31.3432C4.85924 29.1766 4.37347 26.5992 4.37344 23.6108C4.37344 20.3981 4.97099 17.4836 6.16641 14.8686C7.4365 12.1791 9.22941 9.90037 11.5453 8.03265C13.8613 6.09019 16.6634 4.59622 19.9506 3.55023C23.3127 2.50424 27.1236 1.9809 31.3822 1.9809ZM106.225 3.66156C113.024 3.66165 118.329 5.79162 122.139 10.0502C125.949 14.3089 127.854 20.062 127.854 27.309C127.854 34.4813 125.949 40.1969 122.139 44.4555C118.329 48.7141 113.024 50.8441 106.225 50.8442H83.1381V82.1118H73.3881V3.66156H106.225ZM194.686 78.8618V82.1118H185.048L177.204 61.2661H143.358L135.288 82.1118H126.324V78.8618L155.574 3.66156H165.324L194.686 78.8618ZM236.069 3.66156C243.465 3.66157 249.106 5.75395 252.992 9.93793C256.877 14.1219 258.819 19.9124 258.819 27.309C258.819 33.5848 257.474 38.5158 254.785 42.102C252.095 45.6883 248.433 48.2664 243.801 49.8354L260.052 78.8618V82.1118H250.413L233.042 51.0678H212.982V82.1118H203.232V3.66156H236.069ZM281.498 38.4037H294.05L316.801 3.66156H325.878V6.91156L302.568 42.2143L327.335 78.8618V82.1118H317.698L294.163 47.0336H281.498V82.1118H271.748V3.66156H281.498V38.4037ZM146.272 52.9731H174.177L160.281 16.6625L146.272 52.9731ZM212.982 42.4389H234.388C239.02 42.4388 242.569 41.1685 245.035 38.6284C247.575 36.0881 248.845 32.3148 248.845 27.309C248.845 22.2285 247.575 18.4552 245.035 15.9897C242.569 13.5242 239.02 12.2915 234.388 12.2914H212.982V42.4389ZM83.1381 42.2143H104.543C108.503 42.2143 111.716 40.944 114.182 38.4037C116.647 35.8635 117.88 32.1652 117.88 27.309C117.88 22.3781 116.647 18.6423 114.182 16.102C111.716 13.5617 108.503 12.2914 104.543 12.2914H83.1381V42.2143Z" fill="url(#paint0_linear_12295_424)"/>
<path d="M31.3822 1.9809V0.0732673H31.3822L31.3822 1.9809ZM42.5893 3.55023L42.0338 5.37521L42.0521 5.38077L42.0705 5.38596L42.5893 3.55023ZM51.5551 8.25726L50.3171 9.70865L50.34 9.72812L50.3634 9.74685L51.5551 8.25726ZM57.6068 16.4379L55.8494 17.1799L55.8595 17.2038L55.8702 17.2273L57.6068 16.4379ZM59.8481 28.4301V30.3377H61.7557V28.4301H59.8481ZM50.0981 28.4301H48.1904V30.3377H50.0981V28.4301ZM48.5287 20.2485L50.2574 19.4418L50.2574 19.4417L48.5287 20.2485ZM44.2709 14.8686L43.056 16.3393L43.0905 16.3678L43.1263 16.3947L44.2709 14.8686ZM38.3305 11.8432L38.822 9.99998L38.822 9.99998L38.3305 11.8432ZM31.2699 10.9467V9.03909H31.2699L31.2699 10.9467ZM18.6059 14.309L17.4794 12.7695L17.4703 12.7762L17.4612 12.783L18.6059 14.309ZM14.1234 22.9379L12.2158 22.9379V22.9379H14.1234ZM15.1322 27.645L13.426 28.4981L13.4359 28.5179L13.4463 28.5375L15.1322 27.645ZM18.1576 31.1196L16.9864 32.6254L16.9865 32.6254L18.1576 31.1196ZM23.2016 34.145L22.374 35.8637L22.4117 35.8819L22.4501 35.8983L23.2016 34.145ZM30.5981 36.9467L31.247 35.1529L31.2313 35.1472L31.2155 35.1418L30.5981 36.9467ZM35.8647 38.852L36.5388 37.0675L36.5262 37.0627L36.5136 37.0581L35.8647 38.852ZM45.391 42.7748L44.6082 44.5145L44.6264 44.5227L44.6449 44.5305L45.391 42.7748ZM53.2357 47.2573L54.3964 45.7434L54.3964 45.7433L53.2357 47.2573ZM58.5033 53.4213L56.8187 54.3163L56.8246 54.3275L56.8307 54.3386L58.5033 53.4213ZM60.4086 61.7143H62.3162V61.7143L60.4086 61.7143ZM58.6156 70.4565L60.3588 71.2313L60.3588 71.2312L58.6156 70.4565ZM53.2357 77.517L54.4616 78.9787L54.4659 78.975L53.2357 77.517ZM44.4945 82.1118L45.0745 83.9291H45.0745L44.4945 82.1118ZM32.1664 83.7924L32.1664 85.7001H32.1664V83.7924ZM20.7357 82.1118L21.2941 80.2877L21.282 80.284L21.2699 80.2804L20.7357 82.1118ZM11.0971 77.2924L9.89563 78.7742L9.91744 78.7919L9.93977 78.8089L11.0971 77.2924ZM4.37344 68.8871L2.65251 69.7102L2.66337 69.7329L2.67483 69.7553L4.37344 68.8871ZM1.90762 56.6713V54.7637H-5.36442e-06V56.6713H1.90762ZM11.6576 56.6713H13.5653V54.7637H11.6576V56.6713ZM13.5629 65.3012L11.8903 66.2185L11.9015 66.2389L11.9132 66.2591L13.5629 65.3012ZM18.6059 70.9047L17.508 72.4648L17.508 72.4648L18.6059 70.9047ZM25.3305 73.9301L24.881 75.784H24.881L25.3305 73.9301ZM32.6147 74.8266L32.6146 76.7342H32.6147V74.8266ZM45.727 71.2407L46.937 72.7154L46.9481 72.7063L46.9592 72.6969L45.727 71.2407ZM50.0981 62.1625H52.0057V62.1625L50.0981 62.1625ZM48.977 57.4555L50.6445 56.5291L50.6445 56.529L48.977 57.4555ZM45.6156 53.8696L44.4711 55.3957L44.4961 55.4144L44.5217 55.4323L45.6156 53.8696ZM40.0121 50.7319L39.2054 52.4605L39.2294 52.4717L39.2536 52.4822L40.0121 50.7319ZM32.1664 47.4819L32.8362 45.6957L32.8245 45.6913L32.8127 45.687L32.1664 47.4819ZM26.5629 45.4643L27.2091 43.6694L27.1998 43.6661L26.5629 45.4643ZM17.0375 41.6537L16.203 43.3692L16.2219 43.3784L16.2411 43.3872L17.0375 41.6537ZM10.0893 37.1713L8.79769 38.5752L8.81322 38.5895L8.82906 38.6034L10.0893 37.1713ZM5.83047 31.3432L4.08974 32.1235L4.08975 32.1235L5.83047 31.3432ZM4.37344 23.6108H2.46581V23.6108L4.37344 23.6108ZM6.16641 14.8686L4.44146 14.054L4.4364 14.0647L4.43147 14.0755L6.16641 14.8686ZM11.5453 8.03265L12.7429 9.51756L12.7571 9.50605L12.7712 9.49426L11.5453 8.03265ZM19.9506 3.55023L19.3839 1.72868L19.3722 1.73241L19.9506 3.55023ZM106.225 3.66156L106.225 1.75393H106.225V3.66156ZM122.139 10.0502L123.561 8.77827L123.561 8.77824L122.139 10.0502ZM127.854 27.309L129.762 27.309V27.309H127.854ZM122.139 44.4555L123.561 45.7275L123.561 45.7275L122.139 44.4555ZM106.225 50.8442V52.7518H106.225L106.225 50.8442ZM83.1381 50.8442V48.9366H81.2305V50.8442H83.1381ZM83.1381 82.1118V84.0194H85.0457V82.1118H83.1381ZM73.3881 82.1118H71.4805V84.0194H73.3881V82.1118ZM73.3881 3.66156V1.75393H71.4805V3.66156H73.3881ZM194.686 78.8618H196.594V78.5025L196.463 78.1679L194.686 78.8618ZM194.686 82.1118V84.0194H196.594V82.1118H194.686ZM185.048 82.1118L183.263 82.7836L183.728 84.0194H185.048V82.1118ZM177.204 61.2661L178.989 60.5942L178.524 59.3584H177.204V61.2661ZM143.358 61.2661V59.3584H142.051L141.579 60.5774L143.358 61.2661ZM135.288 82.1118V84.0194H136.596L137.067 82.8004L135.288 82.1118ZM126.324 82.1118H124.416V84.0194H126.324V82.1118ZM126.324 78.8618L124.546 78.1702L124.416 78.5038V78.8618H126.324ZM155.574 3.66156V1.75393H154.269L153.796 2.97003L155.574 3.66156ZM165.324 3.66156L167.101 2.96773L166.627 1.75393H165.324V3.66156ZM236.069 3.66156V1.75393V1.75393V3.66156ZM252.992 9.93793L254.39 8.63989V8.63988L252.992 9.93793ZM258.819 27.309L260.726 27.309V27.309H258.819ZM254.785 42.102L256.311 43.2466L256.311 43.2465L254.785 42.102ZM243.801 49.8354L243.189 48.0286L241.016 48.7648L242.137 50.7673L243.801 49.8354ZM260.052 78.8618H261.96V78.3641L261.717 77.9298L260.052 78.8618ZM260.052 82.1118V84.0194H261.96V82.1118H260.052ZM250.413 82.1118L248.749 83.0433L249.295 84.0194H250.413V82.1118ZM233.042 51.0678L234.707 50.1363L234.161 49.1602H233.042V51.0678ZM212.982 51.0678V49.1602H211.074V51.0678H212.982ZM212.982 82.1118V84.0194H214.889V82.1118H212.982ZM203.232 82.1118H201.324V84.0194H203.232V82.1118ZM203.232 3.66156V1.75393H201.324V3.66156H203.232ZM281.498 38.4037H279.591V40.3114H281.498V38.4037ZM294.05 38.4037V40.3114H295.081L295.646 39.4488L294.05 38.4037ZM316.801 3.66156V1.75393H315.77L315.205 2.61649L316.801 3.66156ZM325.878 3.66156H327.786V1.75393H325.878V3.66156ZM325.878 6.91156L327.47 7.9627L327.786 7.48455V6.91156H325.878ZM302.568 42.2143L300.976 41.1632L300.274 42.2266L300.987 43.2825L302.568 42.2143ZM327.335 78.8618H329.243V78.2776L328.916 77.7936L327.335 78.8618ZM327.335 82.1118V84.0194H329.243V82.1118H327.335ZM317.698 82.1118L316.114 83.1746L316.68 84.0194H317.698V82.1118ZM294.163 47.0336L295.747 45.9708L295.18 45.126H294.163V47.0336ZM281.498 47.0336V45.126H279.591V47.0336H281.498ZM281.498 82.1118V84.0194H283.406V82.1118H281.498ZM271.748 82.1118H269.841V84.0194H271.748V82.1118ZM271.748 3.66156V1.75393H269.841V3.66156H271.748ZM281.498 3.66156H283.406V1.75393H281.498V3.66156ZM146.272 52.9731L144.492 52.2864L143.491 54.8807H146.272V52.9731ZM174.177 52.9731V54.8807H176.95L175.959 52.2912L174.177 52.9731ZM160.281 16.6625L162.062 15.9807L160.288 11.3442L158.501 15.9759L160.281 16.6625ZM212.982 42.4389H211.074V44.3465H212.982V42.4389ZM234.388 42.4389V44.3465H234.388L234.388 42.4389ZM245.035 38.6284L243.686 37.2795L243.676 37.2895L243.666 37.2997L245.035 38.6284ZM248.845 27.309L250.753 27.309V27.309H248.845ZM245.035 15.9897L243.686 17.3386L243.696 17.3486L243.706 17.3586L245.035 15.9897ZM234.388 12.2914L234.388 10.3838H234.388V12.2914ZM212.982 12.2914V10.3838H211.074V12.2914H212.982ZM83.1381 42.2143H81.2305V44.1219H83.1381V42.2143ZM114.182 38.4037L115.551 39.7324L115.551 39.7323L114.182 38.4037ZM117.88 27.309L119.788 27.309V27.309H117.88ZM114.182 16.102L115.551 14.7734L115.551 14.7734L114.182 16.102ZM83.1381 12.2914V10.3838H81.2305V12.2914H83.1381ZM31.3822 1.9809V3.88852C35.2513 3.88852 38.7975 4.39025 42.0338 5.37521L42.5893 3.55023L43.1447 1.72525C39.5073 0.618222 35.5823 0.0732673 31.3822 0.0732673V1.9809ZM42.5893 3.55023L42.0705 5.38596C45.2615 6.28777 48.0004 7.73264 50.3171 9.70865L51.5551 8.25726L52.793 6.80587C50.0292 4.44848 46.7907 2.75526 43.1081 1.7145L42.5893 3.55023ZM51.5551 8.25726L50.3634 9.74685C52.7087 11.6231 54.5421 14.0835 55.8494 17.1799L57.6068 16.4379L59.3642 15.6959C57.8326 12.0683 55.6312 9.07527 52.7468 6.76767L51.5551 8.25726ZM57.6068 16.4379L55.8702 17.2273C57.2231 20.2036 57.9404 23.9162 57.9404 28.4301H59.8481H61.7557C61.7557 23.5301 60.9792 19.2471 59.3435 15.6485L57.6068 16.4379ZM59.8481 28.4301V26.5225H50.0981V28.4301V30.3377H59.8481V28.4301ZM50.0981 28.4301H52.0057C52.0057 25.0185 51.4509 21.9993 50.2574 19.4418L48.5287 20.2485L46.8001 21.0552C47.6985 22.9805 48.1904 25.4163 48.1904 28.4301H50.0981ZM48.5287 20.2485L50.2574 19.4417C49.093 16.9468 47.485 14.8947 45.4155 13.3425L44.2709 14.8686L43.1263 16.3947C44.6429 17.5321 45.8724 19.0675 46.8001 21.0552L48.5287 20.2485ZM44.2709 14.8686L45.4858 13.3979C43.5469 11.7961 41.317 10.6653 38.822 9.99998L38.3305 11.8432L37.839 13.6864C39.8268 14.2165 41.5581 15.1019 43.056 16.3393L44.2709 14.8686ZM38.3305 11.8432L38.822 9.99998C36.4105 9.35693 33.8909 9.03909 31.2699 9.03909V10.9467V12.8543C33.5799 12.8543 35.7677 13.1341 37.839 13.6864L38.3305 11.8432ZM31.2699 10.9467L31.2699 9.03909C25.6492 9.03913 20.9806 10.2076 17.4794 12.7695L18.6059 14.309L19.7323 15.8485C22.3576 13.9276 26.1321 12.8544 31.2699 12.8543L31.2699 10.9467ZM18.6059 14.309L17.4612 12.783C14.0284 15.3578 12.2159 18.7829 12.2158 22.9379L14.1234 22.9379L16.0311 22.938C16.0311 20.0703 17.2069 17.7429 19.7505 15.8351L18.6059 14.309ZM14.1234 22.9379H12.2158C12.2158 24.9708 12.598 26.8421 13.426 28.4981L15.1322 27.645L16.8385 26.7918C16.3216 25.7581 16.0311 24.4913 16.0311 22.9379H14.1234ZM15.1322 27.645L13.4463 28.5375C14.266 30.0858 15.4671 31.4436 16.9864 32.6254L18.1576 31.1196L19.3288 29.6138C18.1585 28.7035 17.3433 27.7443 16.8182 26.7524L15.1322 27.645ZM18.1576 31.1196L16.9865 32.6254C18.4656 33.7758 20.2711 34.8512 22.374 35.8637L23.2016 34.145L24.0291 32.4262C22.0975 31.4961 20.5394 30.5553 19.3288 29.6138L18.1576 31.1196ZM23.2016 34.145L22.4501 35.8983C24.5973 36.8186 27.1096 37.7695 29.9806 38.7516L30.5981 36.9467L31.2155 35.1418C28.4086 34.1815 25.9897 33.2644 23.953 32.3916L23.2016 34.145ZM30.5981 36.9467L29.9491 38.7406L35.2157 40.6458L35.8647 38.852L36.5136 37.0581L31.247 35.1529L30.5981 36.9467ZM35.8647 38.852L35.1905 40.6365C38.5193 41.8941 41.6586 43.1871 44.6082 44.5145L45.391 42.7748L46.1738 41.0352C43.1464 39.6729 39.9342 38.3502 36.5388 37.0675L35.8647 38.852ZM45.391 42.7748L44.6449 44.5305C47.5071 45.7469 49.9786 47.1639 52.0751 48.7712L53.2357 47.2573L54.3964 45.7433C52.0102 43.914 49.2517 42.3429 46.1372 41.0192L45.391 42.7748ZM53.2357 47.2573L52.0751 48.7712C54.1091 50.3306 55.6824 52.1775 56.8187 54.3163L58.5033 53.4213L60.188 52.5263C58.784 49.8836 56.8452 47.6207 54.3964 45.7434L53.2357 47.2573ZM58.5033 53.4213L56.8307 54.3386C57.9166 56.3188 58.5009 58.7536 58.501 61.7143L60.4086 61.7143L62.3162 61.7143C62.3162 58.2499 61.6302 55.1559 60.176 52.5041L58.5033 53.4213ZM60.4086 61.7143H58.501C58.501 64.6034 57.9523 67.2519 56.8724 69.6817L58.6156 70.4565L60.3588 71.2312C61.6698 68.2816 62.3162 65.1011 62.3162 61.7143H60.4086ZM58.6156 70.4565L56.8724 69.6817C55.8015 72.0912 54.1902 74.2158 52.0056 76.059L53.2357 77.517L54.4659 78.975C57.0629 76.7838 59.0389 74.201 60.3588 71.2313L58.6156 70.4565ZM53.2357 77.517L52.0099 76.0554C49.9207 77.8076 47.24 79.2331 43.9145 80.2944L44.4945 82.1118L45.0745 83.9291C48.7719 82.7491 51.9187 81.1113 54.4616 78.9787L53.2357 77.517ZM44.4945 82.1118L43.9145 80.2944C40.6342 81.3413 36.7284 81.8848 32.1664 81.8848V83.7924V85.7001C37.0183 85.7001 41.3317 85.1236 45.0745 83.9291L44.4945 82.1118ZM32.1664 83.7924L32.1664 81.8848C28.3894 81.8848 24.7677 81.351 21.2941 80.2877L20.7357 82.1118L20.1774 83.9358C24.0254 85.1138 28.0242 85.7 32.1664 85.7001L32.1664 83.7924ZM20.7357 82.1118L21.2699 80.2804C17.8984 79.2971 14.8984 77.7938 12.2544 75.7759L11.0971 77.2924L9.93977 78.8089C12.974 81.1245 16.4005 82.8344 20.2016 83.9431L20.7357 82.1118ZM11.0971 77.2924L12.2985 75.8107C9.75351 73.7471 7.67689 71.1588 6.07206 68.019L4.37344 68.8871L2.67483 69.7553C4.50672 73.3395 6.91209 76.355 9.89563 78.7742L11.0971 77.2924ZM4.37344 68.8871L6.09438 68.0641C4.59901 64.9374 3.81525 61.159 3.81525 56.6713H1.90762H-5.36442e-06C-5.36442e-06 61.5976 0.86046 65.9632 2.65251 69.7102L4.37344 68.8871ZM1.90762 56.6713V58.579H11.6576V56.6713V54.7637H1.90762V56.6713ZM11.6576 56.6713H9.74999C9.74999 60.3351 10.4264 63.5491 11.8903 66.2185L13.5629 65.3012L15.2355 64.384C14.1591 62.4211 13.5653 59.8813 13.5653 56.6713H11.6576ZM13.5629 65.3012L11.9132 66.2591C13.3843 68.7926 15.2467 70.8735 17.508 72.4648L18.6059 70.9047L19.7037 69.3447C17.9306 68.0969 16.4311 66.4419 15.2126 64.3433L13.5629 65.3012ZM18.6059 70.9047L17.508 72.4648C19.727 74.0263 22.1899 75.1316 24.881 75.784L25.3305 73.9301L25.7799 72.0762C23.5399 71.5332 21.5193 70.6223 19.7037 69.3447L18.6059 70.9047ZM25.3305 73.9301L24.881 75.784C27.4847 76.4152 30.0636 76.7342 32.6146 76.7342L32.6147 74.8266L32.6147 72.919C30.3843 72.9189 28.1071 72.6404 25.7799 72.0762L25.3305 73.9301ZM32.6147 74.8266V76.7342C38.6546 76.7342 43.5393 75.5031 46.937 72.7154L45.727 71.2407L44.517 69.7659C42.0869 71.7597 38.2298 72.919 32.6147 72.919V74.8266ZM45.727 71.2407L46.9592 72.6969C50.2699 69.8955 52.0057 66.3499 52.0057 62.1625H50.0981H48.1904C48.1904 65.1477 47.0117 67.6547 44.4947 69.7844L45.727 71.2407ZM50.0981 62.1625L52.0057 62.1625C52.0056 60.0991 51.5732 58.2008 50.6445 56.5291L48.977 57.4555L47.3094 58.3819C47.8748 59.3997 48.1904 60.64 48.1904 62.1626L50.0981 62.1625ZM48.977 57.4555L50.6445 56.529C49.7333 54.8891 48.3973 53.4882 46.7096 52.3068L45.6156 53.8696L44.5217 55.4323C45.822 56.3426 46.7264 57.3327 47.3095 58.382L48.977 57.4555ZM45.6156 53.8696L46.7602 52.3435C45.1164 51.1106 43.1093 49.995 40.7706 48.9815L40.0121 50.7319L39.2536 52.4822C41.3974 53.4112 43.1265 54.3872 44.4711 55.3957L45.6156 53.8696ZM40.0121 50.7319L40.8188 49.0032C38.5218 47.9312 35.8585 46.829 32.8362 45.6957L32.1664 47.4819L31.4966 49.268C34.4515 50.3761 37.0196 51.4405 39.2054 52.4605L40.0121 50.7319ZM32.1664 47.4819L32.8127 45.687L27.2091 43.6695L26.5629 45.4643L25.9167 47.2591L31.5202 49.2767L32.1664 47.4819ZM26.5629 45.4643L27.1998 43.6661C23.6552 42.4108 20.5352 41.1614 17.8339 39.9203L17.0375 41.6537L16.2411 43.3872C19.0684 44.6862 22.2984 45.9777 25.926 47.2625L26.5629 45.4643ZM17.0375 41.6537L17.872 39.9383C15.227 38.6516 13.0626 37.2468 11.3495 35.7392L10.0893 37.1713L8.82906 38.6034C10.8515 40.3831 13.3195 41.9664 16.203 43.3692L17.0375 41.6537ZM10.0893 37.1713L11.3808 35.7674C9.69022 34.2121 8.4295 32.4775 7.5712 30.5629L5.83047 31.3432L4.08975 32.1235C5.17401 34.5423 6.75261 36.6937 8.79769 38.5752L10.0893 37.1713ZM5.83047 31.3432L7.57121 30.5629C6.73452 28.6964 6.28109 26.3975 6.28107 23.6108L4.37344 23.6108L2.46581 23.6108C2.46584 26.801 2.98397 29.6567 4.08974 32.1235L5.83047 31.3432ZM4.37344 23.6108H6.28107C6.28107 20.6394 6.83247 17.9999 7.90135 15.6617L6.16641 14.8686L4.43147 14.0755C3.10951 16.9673 2.46581 20.1568 2.46581 23.6108H4.37344ZM6.16641 14.8686L7.89137 15.6832C9.03849 13.2541 10.6511 11.2045 12.7429 9.51756L11.5453 8.03265L10.3478 6.54775C7.80773 8.59623 5.83451 11.1042 4.44146 14.054L6.16641 14.8686ZM11.5453 8.03265L12.7712 9.49426C14.8715 7.73268 17.4454 6.34927 20.529 5.36805L19.9506 3.55023L19.3722 1.73241C15.8814 2.84317 12.8511 4.4477 10.3195 6.57105L11.5453 8.03265ZM19.9506 3.55023L20.5173 5.37174C23.6623 4.3933 27.277 3.88853 31.3822 3.88852L31.3822 1.9809L31.3822 0.0732673C26.9701 0.0732706 22.9631 0.615182 19.3839 1.72872L19.9506 3.55023ZM106.225 3.66156L106.225 5.56919C112.593 5.56927 117.338 7.54491 120.717 11.3222L122.139 10.0502L123.561 8.77824C119.32 4.03834 113.454 1.75403 106.225 1.75393L106.225 3.66156ZM122.139 10.0502L120.717 11.3222C124.138 15.1448 125.946 20.401 125.946 27.309H127.854H129.762C129.762 19.7229 127.761 13.4729 123.561 8.77827L122.139 10.0502ZM127.854 27.309L125.946 27.309C125.946 34.1363 124.141 39.3574 120.717 43.1835L122.139 44.4555L123.561 45.7275C127.758 41.0363 129.762 34.8263 129.762 27.309L127.854 27.309ZM122.139 44.4555L120.717 43.1835C117.338 46.9608 112.593 48.9365 106.225 48.9366L106.225 50.8442L106.225 52.7518C113.454 52.7517 119.32 50.4674 123.561 45.7275L122.139 44.4555ZM106.225 50.8442V48.9366H83.1381V50.8442V52.7518H106.225V50.8442ZM83.1381 50.8442H81.2305V82.1118H83.1381H85.0457V50.8442H83.1381ZM83.1381 82.1118V80.2041H73.3881V82.1118V84.0194H83.1381V82.1118ZM73.3881 82.1118H75.2957V3.66156H73.3881H71.4805V82.1118H73.3881ZM73.3881 3.66156V5.56919H106.225V3.66156V1.75393H73.3881V3.66156ZM194.686 78.8618H192.778V82.1118H194.686H196.594V78.8618H194.686ZM194.686 82.1118V80.2041H185.048V82.1118V84.0194H194.686V82.1118ZM185.048 82.1118L186.834 81.4399L178.989 60.5942L177.204 61.2661L175.418 61.9379L183.263 82.7836L185.048 82.1118ZM177.204 61.2661V59.3584H143.358V61.2661V63.1737H177.204V61.2661ZM143.358 61.2661L141.579 60.5774L133.509 81.4231L135.288 82.1118L137.067 82.8004L145.137 61.9547L143.358 61.2661ZM135.288 82.1118V80.2041H126.324V82.1118V84.0194H135.288V82.1118ZM126.324 82.1118H128.231V78.8618H126.324H124.416V82.1118H126.324ZM126.324 78.8618L128.102 79.5533L157.352 4.35309L155.574 3.66156L153.796 2.97003L124.546 78.1702L126.324 78.8618ZM155.574 3.66156V5.56919H165.324V3.66156V1.75393H155.574V3.66156ZM165.324 3.66156L163.547 4.35539L192.909 79.5556L194.686 78.8618L196.463 78.1679L167.101 2.96773L165.324 3.66156ZM236.069 3.66156V5.56919C243.1 5.56919 248.169 7.54729 251.594 11.236L252.992 9.93793L254.39 8.63988C250.044 3.96061 243.83 1.75394 236.069 1.75393V3.66156ZM252.992 9.93793L251.594 11.236C255.063 14.9724 256.911 20.2469 256.911 27.309H258.819H260.726C260.726 19.5778 258.69 13.2714 254.39 8.63989L252.992 9.93793ZM258.819 27.309L256.911 27.309C256.911 33.3332 255.619 37.8105 253.258 40.9574L254.785 42.102L256.311 43.2465C259.33 39.221 260.726 33.8364 260.726 27.309L258.819 27.309ZM254.785 42.102L253.258 40.9574C250.821 44.2077 247.492 46.5713 243.189 48.0286L243.801 49.8354L244.413 51.6422C249.375 49.9615 253.369 47.1688 256.311 43.2466L254.785 42.102ZM243.801 49.8354L242.137 50.7673L258.388 79.7937L260.052 78.8618L261.717 77.9298L245.466 48.9035L243.801 49.8354ZM260.052 78.8618H258.145V82.1118H260.052H261.96V78.8618H260.052ZM260.052 82.1118V80.2041H250.413V82.1118V84.0194H260.052V82.1118ZM250.413 82.1118L252.078 81.1802L234.707 50.1363L233.042 51.0678L231.378 51.9993L248.749 83.0433L250.413 82.1118ZM233.042 51.0678V49.1602H212.982V51.0678V52.9754H233.042V51.0678ZM212.982 51.0678H211.074V82.1118H212.982H214.889V51.0678H212.982ZM212.982 82.1118V80.2041H203.232V82.1118V84.0194H212.982V82.1118ZM203.232 82.1118H205.139V3.66156H203.232H201.324V82.1118H203.232ZM203.232 3.66156V5.56919H236.069V3.66156V1.75393H203.232V3.66156ZM281.498 38.4037V40.3114H294.05V38.4037V36.4961H281.498V38.4037ZM294.05 38.4037L295.646 39.4488L318.397 4.70663L316.801 3.66156L315.205 2.61649L292.454 37.3587L294.05 38.4037ZM316.801 3.66156V5.56919H325.878V3.66156V1.75393H316.801V3.66156ZM325.878 3.66156H323.971V6.91156H325.878H327.786V3.66156H325.878ZM325.878 6.91156L324.286 5.86042L300.976 41.1632L302.568 42.2143L304.16 43.2654L327.47 7.9627L325.878 6.91156ZM302.568 42.2143L300.987 43.2825L325.755 79.9299L327.335 78.8618L328.916 77.7936L304.148 41.1461L302.568 42.2143ZM327.335 78.8618H325.428V82.1118H327.335H329.243V78.8618H327.335ZM327.335 82.1118V80.2041H317.698V82.1118V84.0194H327.335V82.1118ZM317.698 82.1118L319.282 81.0489L295.747 45.9708L294.163 47.0336L292.578 48.0965L316.114 83.1746L317.698 82.1118ZM294.163 47.0336V45.126H281.498V47.0336V48.9413H294.163V47.0336ZM281.498 47.0336H279.591V82.1118H281.498H283.406V47.0336H281.498ZM281.498 82.1118V80.2041H271.748V82.1118V84.0194H281.498V82.1118ZM271.748 82.1118H273.656V3.66156H271.748H269.841V82.1118H271.748ZM271.748 3.66156V5.56919H281.498V3.66156V1.75393H271.748V3.66156ZM281.498 3.66156H279.591V38.4037H281.498H283.406V3.66156H281.498ZM146.272 52.9731V54.8807H174.177V52.9731V51.0655H146.272V52.9731ZM174.177 52.9731L175.959 52.2912L162.062 15.9807L160.281 16.6625L158.499 17.3444L172.396 53.6549L174.177 52.9731ZM160.281 16.6625L158.501 15.9759L144.492 52.2864L146.272 52.9731L148.052 53.6597L162.06 17.3492L160.281 16.6625ZM212.982 42.4389V44.3465H234.388V42.4389V40.5313H212.982V42.4389ZM234.388 42.4389L234.388 44.3465C239.37 44.3465 243.477 42.9716 246.403 39.957L245.035 38.6284L243.666 37.2997C241.661 39.3654 238.671 40.5312 234.388 40.5313L234.388 42.4389ZM245.035 38.6284L246.383 39.9773C249.403 36.9579 250.753 32.6184 250.753 27.309L248.845 27.309L246.938 27.309C246.937 32.0112 245.747 35.2183 243.686 37.2795L245.035 38.6284ZM248.845 27.309H250.753C250.753 21.9394 249.41 17.5776 246.363 14.6208L245.035 15.9897L243.706 17.3586C245.74 19.3328 246.938 22.5176 246.938 27.309H248.845ZM245.035 15.9897L246.383 14.6408C243.455 11.712 239.354 10.3839 234.388 10.3838L234.388 12.2914L234.388 14.1991C238.686 14.1991 241.684 15.3364 243.686 17.3386L245.035 15.9897ZM234.388 12.2914V10.3838H212.982V12.2914V14.1991H234.388V12.2914ZM212.982 12.2914H211.074V42.4389H212.982H214.889V12.2914H212.982ZM83.1381 42.2143V44.1219H104.543V42.2143V40.3067H83.1381V42.2143ZM104.543 42.2143V44.1219C108.952 44.1219 112.682 42.6884 115.551 39.7324L114.182 38.4037L112.813 37.0751C110.751 39.1997 108.055 40.3067 104.543 40.3067V42.2143ZM114.182 38.4037L115.551 39.7323C118.474 36.721 119.788 32.4735 119.788 27.309L117.88 27.309L115.973 27.309C115.973 31.8568 114.821 35.006 112.813 37.0752L114.182 38.4037ZM117.88 27.309H119.788C119.788 22.0793 118.478 17.7898 115.551 14.7734L114.182 16.102L112.813 17.4306C114.816 19.4948 115.973 22.6769 115.973 27.309H117.88ZM114.182 16.102L115.551 14.7734C112.682 11.8174 108.952 10.3838 104.543 10.3838V12.2914V14.1991C108.055 14.1991 110.751 15.3061 112.813 17.4306L114.182 16.102ZM104.543 12.2914V10.3838H83.1381V12.2914V14.1991H104.543V12.2914ZM83.1381 12.2914H81.2305V42.2143H83.1381H85.0457V12.2914H83.1381Z" fill="url(#paint1_linear_12295_424)" mask="url(#path-1-outside-1_12295_424)"/>
<path d="M671.443 1.76245H680.843L721.732 65.0937V1.76245H731.955V84.0108H722.555L681.666 20.7971V84.0108H671.443V1.76245Z" fill="black"/>
<path d="M625.08 76.3734C631.973 76.3734 637.26 74.5718 640.942 70.9686C644.623 67.287 646.464 62.5479 646.464 56.7513V29.0219C646.464 23.2254 644.623 18.5255 640.942 14.9222C637.26 11.2406 631.973 9.39981 625.08 9.39981C618.108 9.39981 612.781 11.2406 609.1 14.9222C605.497 18.5255 603.695 23.2254 603.695 29.0219V56.7513C603.695 62.5479 605.497 67.287 609.1 70.9686C612.781 74.5718 618.108 76.3734 625.08 76.3734ZM625.08 85.7733C620.223 85.7733 615.836 85.1074 611.92 83.7758C608.082 82.4442 604.792 80.525 602.05 78.0184C599.308 75.5118 597.193 72.4569 595.705 68.8536C594.217 65.172 593.473 60.9813 593.473 56.2813V29.4919C593.473 24.792 594.217 20.6404 595.705 17.0371C597.193 13.3556 599.308 10.2615 602.05 7.75484C604.792 5.24822 608.082 3.3291 611.92 1.99746C615.836 0.66582 620.223 0 625.08 0C629.858 0 634.205 0.66582 638.122 1.99746C642.038 3.3291 645.367 5.24822 648.109 7.75484C650.851 10.2615 652.966 13.3556 654.454 17.0371C655.942 20.6404 656.686 24.792 656.686 29.4919V56.2813C656.686 60.9813 655.942 65.172 654.454 68.8536C652.966 72.4569 650.851 75.5118 648.109 78.0184C645.367 80.525 642.038 82.4442 638.122 83.7758C634.205 85.1074 629.858 85.7733 625.08 85.7733Z" fill="black"/>
<path d="M568.394 1.76245H578.617V84.0108H568.394V1.76245Z" fill="black"/>
<path d="M524.378 10.8098H499.351V1.76245H559.51V10.8098H534.6V84.0108H524.378V10.8098Z" fill="black"/>
<path d="M461.212 76.3734C468.105 76.3734 473.392 74.5718 477.074 70.9686C480.756 67.287 482.596 62.5479 482.596 56.7513V29.0219C482.596 23.2254 480.756 18.5255 477.074 14.9222C473.392 11.2406 468.105 9.39981 461.212 9.39981C454.24 9.39981 448.914 11.2406 445.232 14.9222C441.629 18.5255 439.827 23.2254 439.827 29.0219V56.7513C439.827 62.5479 441.629 67.287 445.232 70.9686C448.914 74.5718 454.24 76.3734 461.212 76.3734ZM461.212 85.7733C456.355 85.7733 451.969 85.1074 448.052 83.7758C444.214 82.4442 440.924 80.525 438.182 78.0184C435.441 75.5118 433.326 72.4569 431.837 68.8536C430.349 65.172 429.605 60.9813 429.605 56.2813V29.4919C429.605 24.792 430.349 20.6404 431.837 17.0371C433.326 13.3556 435.441 10.2615 438.182 7.75484C440.924 5.24822 444.214 3.3291 448.052 1.99746C451.969 0.66582 456.355 0 461.212 0C465.99 0 470.337 0.66582 474.254 1.99746C478.171 3.3291 481.5 5.24822 484.241 7.75484C486.983 10.2615 489.098 13.3556 490.586 17.0371C492.074 20.6404 492.819 24.792 492.819 29.4919V56.2813C492.819 60.9813 492.074 65.172 490.586 68.8536C489.098 72.4569 486.983 75.5118 484.241 78.0184C481.5 80.525 478.171 82.4442 474.254 83.7758C470.337 85.1074 465.99 85.7733 461.212 85.7733Z" fill="black"/>
<path d="M342.335 1.76245H352.205L378.76 43.4741L405.314 1.76245H414.831V84.0108H404.962V19.8571L381.932 56.0463H375.235L352.205 19.9746V84.0108H342.335V1.76245Z" fill="black"/>
<defs>
<linearGradient id="paint0_linear_12295_424" x1="41.4076" y1="-2.11337" x2="299.908" y2="83.8866" gradientUnits="userSpaceOnUse">
<stop stop-color="#FF9D1C"/>
<stop offset="1" stop-color="#FF4120"/>
</linearGradient>
<linearGradient id="paint1_linear_12295_424" x1="41.4076" y1="-2.11337" x2="299.908" y2="83.8866" gradientUnits="userSpaceOnUse">
<stop stop-color="#FF9D1C"/>
<stop offset="1" stop-color="#FF4120"/>
</linearGradient>
</defs>
</svg>
