<svg width="180" height="180" viewBox="0 0 180 180" fill="none" xmlns="http://www.w3.org/2000/svg">
<path d="M138.4 88.2383H91.8992C89.2262 88.2383 87.0593 86.0714 87.0593 83.3984C87.0593 80.7254 89.2262 78.5585 91.8992 78.5585H117.508C120.181 78.5585 122.348 76.3916 122.348 73.7186C122.348 71.0456 120.181 68.8787 117.508 68.8787H106.174H101.103C97.6702 68.8787 95.3285 65.4037 96.6174 62.2218C97.3575 60.3946 99.1319 59.1989 101.103 59.1989H110.34L112.423 54.3591L116.589 44.6793L118.672 39.8394L122.838 30.1596L127.349 19.6777C128.194 17.7148 125.735 16.0087 124.192 17.4872L40.5901 97.6054C39.3145 98.8279 40.1798 100.981 41.9466 100.981H90.9802H95.5138C97.8823 100.981 99.8023 102.901 99.8023 105.27C99.8023 107.638 97.8823 109.558 95.5138 109.558H87.917H70.7629C68.3944 109.558 66.4744 111.478 66.4744 113.847C66.4744 116.215 68.3944 118.135 70.7629 118.135H84.8537H89.6324C92.0009 118.135 93.9209 120.055 93.9209 122.424C93.9209 124.792 92.0009 126.712 89.6324 126.712H81.7905H76.1542C73.7857 126.712 71.8657 128.632 71.8657 131.001V131.276C71.8657 133.492 73.6627 135.289 75.8795 135.289C77.2673 135.289 78.2363 136.664 77.7695 137.971L69.6351 160.747C68.9205 162.749 71.4548 164.298 72.91 162.749L139.828 91.5413C141.005 90.2899 140.117 88.2383 138.4 88.2383Z" fill="url(#paint0_linear_12295_430)"/>
<defs>
<linearGradient id="paint0_linear_12295_430" x1="100.5" y1="25" x2="102.5" y2="158" gradientUnits="userSpaceOnUse">
<stop stop-color="#FFB71C"/>
<stop offset="1" stop-color="#FF4120"/>
</linearGradient>
</defs>
</svg>
