<?xml version="1.0" encoding="UTF-8"?>
<svg version="1.1" xmlns="http://www.w3.org/2000/svg" width="1058" height="887">
<path d="M0 0 C0.82022644 -0.00281982 1.64045288 -0.00563965 2.48553467 -0.00854492 C3.37660416 -0.00652069 4.26767365 -0.00449646 5.18574524 -0.00241089 C6.1308194 -0.00416321 7.07589355 -0.00591553 8.04960632 -0.00772095 C11.17223447 -0.01212113 14.29480597 -0.0092086 17.41743469 -0.00582886 C19.58408621 -0.00650225 21.75073766 -0.00747258 23.91738892 -0.00872803 C28.45590434 -0.01020237 32.99440007 -0.00805824 37.53291321 -0.00338745 C43.36417291 0.00231988 49.19538668 -0.00097718 55.02664471 -0.00695992 C59.4985794 -0.01056392 63.97050311 -0.00942786 68.44243813 -0.00683212 C70.59353961 -0.00616294 72.74464208 -0.00699099 74.89574242 -0.00931168 C77.89347883 -0.01183667 80.8911395 -0.00800025 83.88887024 -0.00241089 C84.78601242 -0.00443512 85.6831546 -0.00645935 86.60748291 -0.00854492 C92.72895144 0.01271914 92.72895144 0.01271914 93.84321594 1.12698364 C93.94253748 2.8225709 93.97401601 4.52224112 93.97602844 6.22073364 C93.9773175 7.25069458 93.97860657 8.28065552 93.97993469 9.34182739 C93.9760675 10.42592896 93.97220032 11.51003052 93.96821594 12.62698364 C93.97208313 13.71108521 93.97595032 14.79518677 93.97993469 15.91213989 C93.9780011 17.4570813 93.9780011 17.4570813 93.97602844 19.03323364 C93.97490051 19.9852063 93.97377258 20.93717896 93.97261047 21.91799927 C93.84321594 24.12698364 93.84321594 24.12698364 92.84321594 25.12698364 C89.82586361 25.22571576 86.83073091 25.25996262 83.8129425 25.25296021 C82.86497803 25.25482834 81.91701355 25.25669647 80.94032288 25.25862122 C78.87392195 25.26263581 76.80751655 25.26470102 74.74111176 25.26508331 C70.3525112 25.26848575 65.96406055 25.28983302 61.57551193 25.31031418 C53.39552148 25.34840505 45.21568789 25.37959846 37.03559875 25.37747192 C31.35433747 25.37668569 25.67361974 25.40001477 19.99250031 25.43935394 C17.82519218 25.44983227 15.65782145 25.45132457 13.4905014 25.4437027 C10.45675726 25.43410014 7.42466264 25.45522873 4.3910675 25.48342896 C3.04583008 25.46813393 3.04583008 25.46813393 1.67341614 25.45252991 C-2.76528484 25.52655493 -4.58881615 25.68324195 -8.19346619 28.4994812 C-11.96667053 33.5491493 -12.2478361 39.53200046 -12.03178406 45.68948364 C-11.38537052 48.19948819 -11.38537052 48.19948819 -9.46928406 49.37698364 C-8.70615906 49.62448364 -7.94303406 49.87198364 -7.15678406 50.12698364 C-6.26566925 50.46587616 -5.37455444 50.80476868 -4.45643616 51.15393066 C-0.84005047 52.22038699 2.18339292 52.4050361 5.95014954 52.4458313 C6.63377563 52.45587692 7.31740173 52.46592255 8.02174377 52.47627258 C10.26170579 52.50694773 12.50154916 52.5240955 14.74165344 52.54104614 C16.30250559 52.55977045 17.86334775 52.5793448 19.42417908 52.59973145 C23.51757401 52.65092538 27.61100171 52.69061897 31.70454407 52.72787476 C35.88756838 52.76799457 40.07045787 52.81905041 44.25337219 52.86917114 C52.44989446 52.96577947 60.6464838 53.05023217 68.84321594 53.12698364 C68.84321594 53.78698364 68.84321594 54.44698364 68.84321594 55.12698364 C70.82321594 54.79698364 72.80321594 54.46698364 74.84321594 54.12698364 C74.84321594 54.78698364 74.84321594 55.44698364 74.84321594 56.12698364 C75.83321594 55.79698364 76.82321594 55.46698364 77.84321594 55.12698364 C85.57286307 57.51589768 91.47774503 62.40234369 95.84321594 69.12698364 C98.82966196 75.93954311 100.99423474 83.20907912 100.96821594 90.68948364 C100.97079407 91.43327271 100.97337219 92.17706177 100.97602844 92.94338989 C100.84293768 95.13155868 100.42975425 97.01979045 99.84321594 99.12698364 C99.50260784 100.79217883 99.16763198 102.4585583 98.84321594 104.12698364 C98.18321594 104.12698364 97.52321594 104.12698364 96.84321594 104.12698364 C97.17321594 105.11698364 97.50321594 106.10698364 97.84321594 107.12698364 C93.29155508 117.79035042 86.31586469 122.86894047 75.90571594 127.14651489 C69.28643761 129.26569711 62.66787124 129.27154292 55.79292297 129.25637817 C54.31613319 129.25900665 54.31613319 129.25900665 52.80950928 129.26168823 C49.57333079 129.2660702 46.33720743 129.26318302 43.10102844 129.25979614 C40.84898366 129.26046991 38.59693894 129.26144054 36.34489441 129.26269531 C31.63599451 129.26416705 26.92711363 129.26203334 22.21821594 129.25735474 C16.1684475 129.25163807 10.11872323 129.25495198 4.06895638 129.2609272 C-0.5753971 129.26453019 -5.21973999 129.26339578 -9.86409378 129.26079941 C-12.09613678 129.26013043 -14.32818073 129.26095756 -16.56022263 129.26327896 C-19.66779404 129.2658033 -22.77529235 129.26196891 -25.88285828 129.25637817 C-26.81269028 129.2584024 -27.74252228 129.26042664 -28.70053101 129.26251221 C-35.04251758 129.24125012 -35.04251758 129.24125012 -36.15678406 128.12698364 C-36.25610559 126.43139639 -36.28758413 124.73172617 -36.28959656 123.03323364 C-36.29153015 121.48829224 -36.29153015 121.48829224 -36.29350281 119.91213989 C-36.28963562 118.82803833 -36.28576843 117.74393677 -36.28178406 116.62698364 C-36.28565125 115.54288208 -36.28951843 114.45878052 -36.29350281 113.34182739 C-36.29221375 112.31186646 -36.29092468 111.28190552 -36.28959656 110.22073364 C-36.28846863 109.26876099 -36.2873407 108.31678833 -36.28617859 107.33596802 C-36.15678406 105.12698364 -36.15678406 105.12698364 -35.15678406 104.12698364 C-32.01766363 104.00686436 -28.89958405 103.95147493 -25.75932312 103.93753052 C-24.27885498 103.92509056 -24.27885498 103.92509056 -22.76847839 103.91239929 C-20.61696761 103.89495354 -18.46543735 103.87979926 -16.31389618 103.86662292 C-12.9098913 103.84565654 -9.50598357 103.81862658 -6.10203552 103.78994751 C1.12967782 103.73012903 8.36143635 103.67806837 15.59321594 103.62698364 C23.95725602 103.56777534 32.32124886 103.5054173 40.68520355 103.43510437 C44.04041034 103.40852815 47.39562179 103.38771007 50.75086975 103.36709595 C52.8099744 103.35048898 54.86907693 103.3336168 56.92817688 103.31643677 C57.86240479 103.31225235 58.79663269 103.30806793 59.75917053 103.30375671 C63.91012039 103.26365571 67.79658566 103.17755491 71.84321594 102.12698364 C72.33821594 100.64198364 72.33821594 100.64198364 72.84321594 99.12698364 C73.50321594 99.12698364 74.16321594 99.12698364 74.84321594 99.12698364 C76.02546831 92.29619216 75.5878654 86.00067097 74.84321594 79.12698364 C68.65151059 76.57745791 63.52523498 74.87778717 56.75898743 74.88748169 C56.07673599 74.88546753 55.39448456 74.88345337 54.69155884 74.88137817 C53.21840252 74.87784942 51.745231 74.87857898 50.27207756 74.88315392 C47.92810777 74.88878943 45.58462521 74.87951738 43.24069214 74.86595154 C36.57912565 74.82901732 29.91772399 74.8102087 23.25605774 74.82156372 C19.17046172 74.8274697 15.08554991 74.8088887 11.00009346 74.77567482 C9.45622231 74.76780359 7.91227489 74.76888342 6.36842155 74.77969933 C-4.67699127 74.85370489 -13.17456323 73.11809406 -23.15678406 68.12698364 C-23.15678406 67.46698364 -23.15678406 66.80698364 -23.15678406 66.12698364 C-24.47678406 65.46698364 -25.79678406 64.80698364 -27.15678406 64.12698364 C-27.15678406 63.46698364 -27.15678406 62.80698364 -27.15678406 62.12698364 C-27.77553406 61.85885864 -28.39428406 61.59073364 -29.03178406 61.31448364 C-31.15678406 60.12698364 -31.15678406 60.12698364 -33.15678406 57.12698364 C-33.15678406 55.80698364 -33.15678406 54.48698364 -33.15678406 53.12698364 C-34.14678406 52.79698364 -35.13678406 52.46698364 -36.15678406 52.12698364 C-39.12468662 40.62636121 -40.14209267 28.77162481 -34.15678406 18.12698364 C-31.662139 14.06720511 -29.55952757 10.85884982 -25.28178406 8.62698364 C-24.58053406 8.46198364 -23.87928406 8.29698364 -23.15678406 8.12698364 C-23.15678406 7.46698364 -23.15678406 6.80698364 -23.15678406 6.12698364 C-18.18630138 3.84884575 -13.48663834 2.35022889 -8.15678406 1.12698364 C-7.17743535 0.85634189 -7.17743535 0.85634189 -6.17830181 0.58023262 C-4.05321816 0.1037629 -2.17599916 0.00115497 0 0 Z " fill="#000000" transform="translate(191.1567840576172,334.8730163574219)"/>
<path d="M0 0 C15.901875 -0.020625 31.80375 -0.04125 48.1875 -0.0625 C53.20606201 -0.071604 58.22462402 -0.08070801 63.39526367 -0.09008789 C69.52990723 -0.09460449 69.52990723 -0.09460449 72.4030304 -0.09544373 C74.40697959 -0.09697794 76.41092788 -0.10049217 78.41487122 -0.10557556 C81.45262249 -0.1128953 84.4903174 -0.11390598 87.52807617 -0.11352539 C88.41881679 -0.1171235 89.3095574 -0.12072161 90.22729015 -0.12442875 C94.29129089 -0.11761297 98.03372187 -0.00219982 102 1 C102.69480469 1.11859375 103.38960937 1.2371875 104.10546875 1.359375 C114.90828514 3.38616982 123.1179038 8.40075995 130 17 C132.00085678 20.20503374 133.81645194 23.40174183 135 27 C134.67 27.66 134.34 28.32 134 29 C134.66 29.33 135.32 29.66 136 30 C137.09036928 32.9737344 137.03864166 33.88407501 136 37 C136.66 37 137.32 37 138 37 C138.02917228 40.22914752 138.04685663 43.45826083 138.0625 46.6875 C138.07087891 47.59951172 138.07925781 48.51152344 138.08789062 49.45117188 C138.09111328 50.33740234 138.09433594 51.22363281 138.09765625 52.13671875 C138.10289307 52.94842529 138.10812988 53.76013184 138.11352539 54.59643555 C137.71068307 63.12543052 134.01161806 71.21006585 129 78 C128.46375 78.78375 127.9275 79.5675 127.375 80.375 C126.92125 80.91125 126.4675 81.4475 126 82 C125.34 82 124.68 82 124 82 C124 82.66 124 83.32 124 84 C121.03 85.65 118.06 87.3 115 89 C116.61401552 92.22803104 117.44195592 93.68775315 119.86328125 96.05859375 C120.42080078 96.60966797 120.97832031 97.16074219 121.55273438 97.72851562 C122.13345703 98.29248047 122.71417969 98.85644531 123.3125 99.4375 C123.88162109 99.99759766 124.45074219 100.55769531 125.03710938 101.13476562 C126.15909914 102.23872111 127.28292228 103.34081678 128.40869141 104.44091797 C130.62288162 106.61026726 132.81201228 108.80426719 135 111 C135.66 111.66 136.32 112.32 137 113 C137 113.99 137 114.98 137 116 C137.556875 116.061875 138.11375 116.12375 138.6875 116.1875 C142.01529218 117.35672428 143.73133832 119.35322804 146 122 C146 122.99 146 123.98 146 125 C146.99 125 147.98 125 149 125 C149.33 125.99 149.66 126.98 150 128 C147.26526804 130.73473196 139.60528689 129.45121899 135.69213867 129.51489258 C134.20114323 129.54637543 132.71039217 129.59396717 131.22045898 129.65844727 C118.9021863 130.1841184 118.9021863 130.1841184 114.18798828 127.24951172 C112.14844336 125.2612139 110.47986034 123.43108905 109 121 C109 120.34 109 119.68 109 119 C107.515 118.505 107.515 118.505 106 118 C105.7834375 117.0409375 105.7834375 117.0409375 105.5625 116.0625 C105.2840625 115.0415625 105.2840625 115.0415625 105 114 C104.40574219 113.70996094 103.81148437 113.41992188 103.19921875 113.12109375 C100.58209178 111.78696331 99.15991748 110.22007502 97.25 108 C96.63640625 107.29875 96.0228125 106.5975 95.390625 105.875 C94 104 94 104 94 102 C93.4225 101.773125 92.845 101.54625 92.25 101.3125 C90 100 90 100 88.5378418 97.45996094 C84.5641263 93.60819015 80.47912108 94.29137246 75.14453125 94.328125 C74.08715256 94.31537537 73.02977386 94.30262573 71.94035339 94.28948975 C68.56413001 94.25314588 65.18890202 94.25048025 61.8125 94.25 C58.4257574 94.22842381 55.03916738 94.2000222 51.6525116 94.16766357 C49.54474449 94.14982869 47.43689731 94.13960982 45.32905579 94.13751221 C44.38104599 94.13370544 43.43303619 94.12989868 42.45629883 94.12597656 C41.61786942 94.12551331 40.77944 94.12505005 39.91560364 94.12457275 C38 94 38 94 37 93 C37 86.4 37 79.8 37 73 C56.47 73 75.94 73 96 73 C96 72.34 96 71.68 96 71 C97.03125 70.773125 98.0625 70.54625 99.125 70.3125 C104.22602551 68.84621332 107.61459189 65.81536235 110.8125 61.625 C112.2546786 58.43702624 112.60076017 55.46007849 113 52 C113.33 51.67 113.66 51.34 114 51 C114.44583709 44.75828068 112.84265722 39.49580395 110 34 C109.896875 33.29875 109.79375 32.5975 109.6875 31.875 C109.13556488 29.6997849 109.13556488 29.6997849 106.4375 28.75 C105.633125 28.5025 104.82875 28.255 104 28 C104 27.34 104 26.68 104 26 C102.515 26.495 102.515 26.495 101 27 C99.66480924 26.67418639 98.33187763 26.33910303 97 26 C94.61674544 25.88406194 92.23062571 25.82347307 89.84472656 25.79467773 C89.12065487 25.78464501 88.39658318 25.77461229 87.65056992 25.76427555 C85.31395382 25.73297086 82.97732071 25.70815266 80.640625 25.68359375 C79.19514422 25.66518289 77.7496688 25.64634581 76.30419922 25.6270752 C70.95286296 25.55871871 65.60142394 25.49860757 60.25 25.4375 C42.30625 25.2209375 42.30625 25.2209375 24 25 C24 58.99 24 92.98 24 128 C16.83837387 131.58081307 8.00694143 129 0 129 C0 86.43 0 43.86 0 0 Z " fill="#000000" transform="translate(608,335)"/>
<path d="M0 0 C1.30991158 0.00842926 1.30991158 0.00842926 2.64628601 0.01702881 C3.5651358 0.01513046 4.4839856 0.01323212 5.43067932 0.01127625 C8.48009164 0.00755991 11.52926775 0.01828726 14.57865906 0.02947998 C16.69374565 0.03067172 18.80883277 0.03112496 20.92391968 0.03086853 C25.36347249 0.03243503 29.80294485 0.04073555 34.24247742 0.05413818 C39.93216027 0.07109715 45.62175437 0.07495346 51.31145954 0.074193 C55.68234097 0.07446509 60.05320301 0.07995306 64.42407799 0.08719444 C66.52163229 0.09037646 68.61918879 0.09234743 70.71674538 0.09308815 C73.65163019 0.0952584 76.58642135 0.10401846 79.52128601 0.11468506 C80.3884877 0.11423187 81.25568939 0.11377869 82.14916992 0.11331177 C86.16252542 0.13461926 89.86111386 0.276208 93.77787781 1.25994873 C94.71244812 1.45072998 95.64701843 1.64151123 96.60990906 1.83807373 C102.92760552 3.26224646 108.83739223 4.85710423 113.77787781 9.25994873 C113.77787781 9.91994873 113.77787781 10.57994873 113.77787781 11.25994873 C114.58225281 11.50744873 115.38662781 11.75494873 116.21537781 12.00994873 C118.77787781 13.25994873 118.77787781 13.25994873 119.59037781 15.38494873 C119.65225281 16.00369873 119.71412781 16.62244873 119.77787781 17.25994873 C120.43787781 17.25994873 121.09787781 17.25994873 121.77787781 17.25994873 C122.93667445 19.44139097 124.07975159 21.6289789 125.21537781 23.82244873 C125.54086609 24.43153076 125.86635437 25.04061279 126.20170593 25.66815186 C129.17238389 31.45638003 129.77787781 36.78471201 129.77787781 43.25994873 C130.10787781 43.58994873 130.43787781 43.91994873 130.77787781 44.25994873 C130.87086819 57.46458262 127.46200426 71.48224095 118.09037781 81.32244873 C115.77787781 83.25994873 115.77787781 83.25994873 113.77787781 83.25994873 C113.77787781 83.91994873 113.77787781 84.57994873 113.77787781 85.25994873 C111.6603139 86.40111429 109.53539647 87.5223303 107.40287781 88.63494873 C106.8189325 88.95205811 106.23498718 89.26916748 105.63334656 89.59588623 C96.24070096 94.44370331 86.49329547 94.54329498 76.11381531 94.45526123 C74.84059418 94.45243134 73.56737305 94.44960144 72.25556946 94.44668579 C68.90513758 94.43744858 65.55498944 94.41954665 62.20463562 94.39727783 C58.77204308 94.37665123 55.33942098 94.36764849 51.90678406 94.35760498 C45.1970717 94.33564962 38.4874911 94.30225132 31.77787781 94.25994873 C30.55929673 91.82278658 30.64862205 90.22720816 30.64506531 87.50604248 C30.64377625 86.56953857 30.64248718 85.63303467 30.64115906 84.66815186 C30.64502625 83.68781982 30.64889343 82.70748779 30.65287781 81.69744873 C30.64707703 80.2211499 30.64707703 80.2211499 30.64115906 78.71502686 C30.64244812 77.77981201 30.64373718 76.84459717 30.64506531 75.88104248 C30.64619324 75.01922363 30.64732117 74.15740479 30.64848328 73.26947021 C30.77787781 71.25994873 30.77787781 71.25994873 31.77787781 70.25994873 C33.52031039 70.1524387 35.26703254 70.11369648 37.01274109 70.10223389 C38.13125458 70.09197174 39.24976807 70.08170959 40.4021759 70.07113647 C41.62186066 70.06383514 42.84154541 70.05653381 44.09819031 70.04901123 C46.66069658 70.02093186 49.22319649 69.99226733 51.78569031 69.96307373 C55.8409936 69.92070515 59.89625925 69.88395643 63.95170593 69.85858154 C67.85495339 69.83093275 71.75765408 69.78504467 75.66069031 69.73651123 C76.86822968 69.73325836 78.07576904 69.73000549 79.31990051 69.72665405 C87.83831018 69.60258453 94.56778152 68.63788546 100.77787781 62.25994873 C105.41543183 54.86411094 105.52058881 48.04630853 104.21537781 39.63494873 C102.27301844 35.07462673 99.75556461 31.27439779 95.77787781 28.25994873 C87.89639253 25.5314577 79.7073333 25.90778392 71.46537781 25.84588623 C69.88496414 25.82715199 68.30456023 25.80757694 66.72416687 25.78720093 C62.58805629 25.73611172 58.45191337 25.69636262 54.31565857 25.65905762 C50.08553722 25.61887152 45.85554773 25.56784619 41.62553406 25.51776123 C33.34307242 25.42127719 25.06054492 25.3367854 16.77787781 25.25994873 C16.78009842 26.54811996 16.78231903 27.8362912 16.78460693 29.16349792 C16.80483599 41.2745733 16.81984881 53.38564526 16.82968998 65.49673367 C16.83491941 71.72388345 16.84201813 77.95101965 16.85331726 84.17816162 C16.86414402 90.18221738 16.87015419 96.18626002 16.87275505 102.19032478 C16.87460968 104.48656483 16.87823102 106.78280412 16.88360786 109.07903862 C16.89081549 112.28315687 16.89186887 115.48722023 16.8914032 118.69134521 C16.89499847 119.65087601 16.89859375 120.6104068 16.90229797 121.59901428 C16.90092331 122.46704681 16.89954865 123.33507935 16.89813232 124.22941589 C16.89905412 124.98805152 16.89997591 125.74668715 16.90092564 126.52831173 C16.77787781 128.25994873 16.77787781 128.25994873 15.77787781 129.25994873 C12.13888605 129.51151142 8.48704108 129.44517099 4.84037781 129.44744873 C3.81235046 129.45969482 2.78432312 129.47194092 1.72514343 129.48455811 C0.74352234 129.4864917 -0.23809875 129.48842529 -1.24946594 129.49041748 C-2.15430725 129.49452637 -3.05914856 129.49863525 -3.9914093 129.50286865 C-6.22212219 129.25994873 -6.22212219 129.25994873 -8.22212219 127.25994873 C-8.47380447 125.06726837 -8.47380447 125.06726837 -8.47608948 122.28741455 C-8.48172913 121.23578629 -8.48736877 120.18415802 -8.49317932 119.10066223 C-8.48913086 117.94215256 -8.4850824 116.78364288 -8.48091125 115.59002686 C-8.48441589 114.37375107 -8.48792053 113.15747528 -8.49153137 111.90434265 C-8.49884042 108.56343744 -8.49710638 105.22277898 -8.4907732 101.88188744 C-8.48571929 98.39010657 -8.49040295 94.89833644 -8.49354553 91.40655518 C-8.49718696 85.54207459 -8.49238147 79.67764434 -8.48286438 73.81317139 C-8.47197946 67.02735565 -8.47550492 60.24166009 -8.48651719 53.45584726 C-8.49558506 47.63585584 -8.49687781 41.81590065 -8.49163985 35.99590445 C-8.48851738 32.51717248 -8.48811836 29.03849704 -8.49471283 25.55976868 C-8.50154799 21.68308824 -8.4920817 17.80654306 -8.48091125 13.92987061 C-8.48495972 12.77136093 -8.48900818 11.61285126 -8.49317932 10.41923523 C-8.48753967 9.36760696 -8.48190002 8.3159787 -8.47608948 7.23248291 C-8.47533543 6.31513115 -8.47458138 5.39777939 -8.47380447 4.45262909 C-7.88878954 -0.64407753 -4.26468817 0.02250459 0 0 Z " fill="#000000" transform="translate(313.2221221923828,334.74005126953125)"/>
<path d="M0 0 C6.70499616 3.59196223 9.43522094 8.45393514 13 15 C14.13947028 16.98283691 15.28550285 18.96191469 16.4375 20.9375 C17.01886719 21.9378125 17.60023438 22.938125 18.19921875 23.96875 C20.52150529 27.87784839 22.95603521 31.7075966 25.421875 35.52734375 C25.94265625 36.34332031 26.4634375 37.15929687 27 38 C27.56203125 38.86753906 28.1240625 39.73507812 28.703125 40.62890625 C30 43 30 43 30 46 C30.66 46 31.32 46 32 46 C32.4021875 46.74830078 32.4021875 46.74830078 32.8125 47.51171875 C35.37005133 52.19775852 38.0641336 56.77355231 40.875 61.3125 C43.60863248 65.73516396 46.33368224 70.16134659 49 74.625 C49.5775 75.58664062 50.155 76.54828125 50.75 77.5390625 C52 80 52 80 52 83 C52.66 83 53.32 83 54 83 C55.6330985 85.53464172 57.14486464 88.06501373 58.625 90.6875 C59.52755147 92.25583863 60.43120923 93.82354109 61.3359375 95.390625 C61.78549805 96.17244141 62.23505859 96.95425781 62.69824219 97.75976562 C64.49596982 100.85352946 66.36533266 103.8958361 68.25 106.9375 C68.88421875 107.96488281 69.5184375 108.99226563 70.171875 110.05078125 C71.38596381 112.00940743 72.6046849 113.96517013 73.828125 115.91796875 C74.37984375 116.81128906 74.9315625 117.70460938 75.5 118.625 C75.9846875 119.40101563 76.469375 120.17703125 76.96875 120.9765625 C78 123 78 123 78 126 C78.66 126.33 79.32 126.66 80 127 C80 128.32 80 129.64 80 131 C75.58367823 131.14509751 71.16796807 131.23400818 66.75 131.3125 C64.86861328 131.3753418 64.86861328 131.3753418 62.94921875 131.43945312 C61.14130859 131.46362305 61.14130859 131.46362305 59.296875 131.48828125 C57.63156738 131.52755737 57.63156738 131.52755737 55.93261719 131.56762695 C53 131 53 131 50.69750977 128.6262207 C49.05769832 126.08926518 47.57657021 123.55706639 46.1875 120.875 C42.52105122 113.98991297 38.3242135 107.48632026 34 101 C34 100.01 34 99.02 34 98 C14.53 98 -4.94 98 -25 98 C-25 95 -25 95 -24 92 C-23.34 92 -22.68 92 -22 92 C-21.87512207 91.27288818 -21.75024414 90.54577637 -21.62158203 89.79663086 C-20.51744647 84.82888817 -19.08849079 81.20696665 -15 78 C-9.03948412 76.70930067 -3.19782579 76.83000041 2.875 76.9375 C4.53386677 76.93442323 6.19273128 76.92730353 7.8515625 76.91601562 C11.9025128 76.89722988 15.94958479 76.93370894 20 77 C19.42900098 74.13905699 19.16659428 73.16138821 17 71.0625 C14.70080717 68.69145739 14.35863113 67.22768018 14 64 C13.34 64 12.68 64 12 64 C11.67386719 63.40832031 11.34773437 62.81664062 11.01171875 62.20703125 C10.57472656 61.41683594 10.13773438 60.62664062 9.6875 59.8125 C9.23375 58.99136719 8.78 58.17023438 8.3125 57.32421875 C7.31822738 55.56352765 6.26585124 53.83548817 5.1875 52.125 C4 50 4 50 4 47 C3.34 47 2.68 47 2 47 C0.35 44.03 -1.3 41.06 -3 38 C-3.66 38 -4.32 38 -5 38 C-6.32 40.31 -7.64 42.62 -9 45 C-9.66 45 -10.32 45 -11 45 C-11.14888672 46.07701172 -11.14888672 46.07701172 -11.30078125 47.17578125 C-12.09563185 50.38626718 -13.35161272 52.4438009 -15.1875 55.1875 C-15.82300781 56.156875 -16.45851563 57.12625 -17.11328125 58.125 C-18.04720703 59.548125 -18.04720703 59.548125 -19 61 C-23.0605469 67.51401719 -26.80090612 74.19984026 -30.5402832 80.90063477 C-33.55934655 86.2823884 -36.75293807 91.52604146 -40.01953125 96.76171875 C-42.84355689 101.37930703 -45.49319492 106.08807276 -48.140625 110.80859375 C-49.97817302 113.96253647 -51.97205207 116.96628843 -54 120 C-55.32563493 122.32901606 -56.58929438 124.68313725 -57.8515625 127.046875 C-59 129 -59 129 -61 131 C-63.61376953 131.22705078 -63.61376953 131.22705078 -66.8828125 131.1953125 C-68.04941406 131.18886719 -69.21601563 131.18242187 -70.41796875 131.17578125 C-71.64128906 131.15902344 -72.86460937 131.14226562 -74.125 131.125 C-75.35605469 131.11597656 -76.58710938 131.10695313 -77.85546875 131.09765625 C-80.90383815 131.07402548 -83.95182382 131.04108054 -87 131 C-87 124.15912252 -81.75794868 117.46610717 -78 112 C-76.99157309 110.33841854 -75.99230897 108.67125722 -75 107 C-73.40783044 104.32388459 -71.80332496 101.70815962 -70.0625 99.125 C-64.53268374 90.74649052 -59.75950294 81.85320617 -54.796875 73.12890625 C-54.20390625 72.09636719 -53.6109375 71.06382812 -53 70 C-52.46890625 69.03964844 -51.9378125 68.07929688 -51.390625 67.08984375 C-50.70226562 66.05537109 -50.70226562 66.05537109 -50 65 C-49.34 65 -48.68 65 -48 65 C-47.814375 63.8553125 -47.814375 63.8553125 -47.625 62.6875 C-47 60 -47 60 -45 57 C-44.34 57 -43.68 57 -43 57 C-42.88398438 56.26136719 -42.76796875 55.52273438 -42.6484375 54.76171875 C-41.99144119 51.96354771 -41.14830543 50.22953664 -39.625 47.8125 C-39.09003906 46.95011719 -38.55507813 46.08773437 -38.00390625 45.19921875 C-37.34261719 44.14347656 -36.68132812 43.08773437 -36 42 C-34.18115909 39.04554123 -32.37203569 36.08516437 -30.5625 33.125 C-30.08425781 32.34511719 -29.60601562 31.56523437 -29.11328125 30.76171875 C-26.3894875 26.31136721 -23.72531865 21.83603025 -21.125 17.3125 C-18.62861212 13.00817654 -16.1002318 8.89743426 -13 5 C-12.34 5 -11.68 5 -11 5 C-10.731875 4.360625 -10.46375 3.72125 -10.1875 3.0625 C-7.97234241 -0.78487898 -4.02121176 -0.46398597 0 0 Z " fill="#000000" transform="translate(517,333)"/>
<path d="M0 0 C0.74709229 -0.0033284 1.49418457 -0.0066568 2.26391602 -0.01008606 C3.84423201 -0.01515091 5.42455871 -0.01749452 7.00488281 -0.01733398 C9.42791243 -0.01952259 11.85048836 -0.03768826 14.2734375 -0.05664062 C15.8072901 -0.05957417 17.34114488 -0.06155923 18.875 -0.0625 C19.60211182 -0.06968552 20.32922363 -0.07687103 21.07836914 -0.08427429 C26.20867197 -0.06085928 26.20867197 -0.06085928 28.4375 2.16796875 C27.7775 2.16796875 27.1175 2.16796875 26.4375 2.16796875 C26.169375 2.78671875 25.90125 3.40546875 25.625 4.04296875 C24.4375 6.16796875 24.4375 6.16796875 21.4375 8.16796875 C20.4475 8.16796875 19.4575 8.16796875 18.4375 8.16796875 C18.1075 9.15796875 17.7775 10.14796875 17.4375 11.16796875 C15.15715765 12.99858492 12.8955332 14.69117859 10.5 16.35546875 C9.85353516 16.81888672 9.20707031 17.28230469 8.54101562 17.75976562 C3.70729013 21.16796875 3.70729013 21.16796875 1.4375 21.16796875 C1.4375 21.82796875 1.4375 22.48796875 1.4375 23.16796875 C-0.43359375 24.6484375 -0.43359375 24.6484375 -3 26.35546875 C-6.47188833 28.71244083 -9.84026808 31.11893277 -13.125 33.73046875 C-15.98424981 35.98882543 -18.87566716 38.06882076 -21.9375 40.04296875 C-26.59335652 43.07620627 -30.79045173 46.57904682 -35.05859375 50.12890625 C-37.78182693 52.3465782 -40.60059851 54.28312235 -43.5625 56.16796875 C-44.81519461 57.08094957 -46.06510549 57.99775969 -47.3125 58.91796875 C-50.5625 61.16796875 -50.5625 61.16796875 -52.5625 61.16796875 C-52.45636164 63.62021569 -52.45636164 63.62021569 -51.5625 66.16796875 C-49.23395537 67.36635084 -49.23395537 67.36635084 -46.5625 68.16796875 C-44.25 69.66796875 -44.25 69.66796875 -42.5625 71.16796875 C-42.5625 71.82796875 -42.5625 72.48796875 -42.5625 73.16796875 C-41.99917969 73.25691406 -41.43585937 73.34585938 -40.85546875 73.4375 C-37.9301919 74.36940251 -36.21661011 75.87584667 -33.875 77.85546875 C-30.61372855 80.54517716 -27.35746777 83.05213944 -23.8125 85.35546875 C-20.16171593 87.72975489 -16.87810234 90.33589176 -13.5625 93.16796875 C-6.74235854 98.58321216 0.19238868 103.84885324 7.2734375 108.91796875 C7.95712402 109.41071289 8.64081055 109.90345703 9.34521484 110.41113281 C10.72962079 111.40816356 12.11792957 112.39979944 13.51025391 113.38574219 C15.18889425 114.59783364 16.81824025 115.87762114 18.4375 117.16796875 C18.4375 117.82796875 18.4375 118.48796875 18.4375 119.16796875 C19.18 119.43609375 19.9225 119.70421875 20.6875 119.98046875 C23.32811949 121.12073626 25.29302844 122.26177181 27.4375 124.16796875 C27.4375 124.82796875 27.4375 125.48796875 27.4375 126.16796875 C28.9225 126.66296875 28.9225 126.66296875 30.4375 127.16796875 C30.1075 127.82796875 29.7775 128.48796875 29.4375 129.16796875 C-4.37862243 131.72065821 -4.37862243 131.72065821 -13.71313477 124.45361328 C-16.25229408 122.07180089 -18.61604736 119.60445158 -20.88427734 116.96386719 C-23.24836388 114.43401258 -25.93677624 112.50356807 -28.7590332 110.51416016 C-30.5353567 109.18822977 -32.01378703 107.74819304 -33.5625 106.16796875 C-34.85652024 105.28605687 -36.17136695 104.43431805 -37.5 103.60546875 C-42.66913263 100.23577145 -47.27371465 96.33670044 -51.9609375 92.33984375 C-54.55383609 90.09616826 -54.55383609 90.09616826 -57.5625 88.16796875 C-57.5625 87.50796875 -57.5625 86.84796875 -57.5625 86.16796875 C-58.6453125 85.79671875 -58.6453125 85.79671875 -59.75 85.41796875 C-62.83856582 84.04527283 -65.07261418 82.44443579 -67.5625 80.16796875 C-67.5625 79.50796875 -67.5625 78.84796875 -67.5625 78.16796875 C-68.4596875 77.98234375 -68.4596875 77.98234375 -69.375 77.79296875 C-71.5625 77.16796875 -71.5625 77.16796875 -74.5625 75.16796875 C-74.5625 74.50796875 -74.5625 73.84796875 -74.5625 73.16796875 C-75.18125 72.89984375 -75.8 72.63171875 -76.4375 72.35546875 C-78.5625 71.16796875 -78.5625 71.16796875 -80.5625 68.16796875 C-81.42377744 63.87682539 -81.50676916 59.86826048 -79.34765625 55.98046875 C-75.58163591 51.44352189 -71.03831952 48.1935151 -66.16015625 44.94140625 C-63.56110677 43.16701759 -61.12974157 41.276555 -58.6875 39.29296875 C-54.85598585 36.19126682 -50.98785755 33.14944711 -47.0625 30.16796875 C-46.0621875 29.40484375 -45.061875 28.64171875 -44.03125 27.85546875 C-41.5625 26.16796875 -41.5625 26.16796875 -39.5625 26.16796875 C-39.5625 25.50796875 -39.5625 24.84796875 -39.5625 24.16796875 C-37.0010343 21.87148226 -36.08282428 21.16796875 -32.5625 21.16796875 C-32.0675 19.68296875 -32.0675 19.68296875 -31.5625 18.16796875 C-26.19107143 14.16796875 -26.19107143 14.16796875 -23.5625 14.16796875 C-23.2325 13.17796875 -22.9025 12.18796875 -22.5625 11.16796875 C-20.44951058 9.36833422 -18.3484101 7.69328598 -16.125 6.04296875 C-15.52623047 5.58792969 -14.92746094 5.13289063 -14.31054688 4.6640625 C-9.16228442 0.77836385 -6.33724056 0.00969896 0 0 Z " fill="#000000" transform="translate(875.5625,334.83203125)"/>
<path d="M0 0 C3.81248426 -0.02887236 7.6249407 -0.04675492 11.4375 -0.0625 C12.52611328 -0.07087891 13.61472656 -0.07925781 14.73632812 -0.08789062 C15.77080078 -0.09111328 16.80527344 -0.09433594 17.87109375 -0.09765625 C18.82943115 -0.10289307 19.78776855 -0.10812988 20.77514648 -0.11352539 C23 0 23 0 24 1 C24.09608663 2.64490549 24.12187787 4.29395691 24.12025452 5.94166565 C24.12162918 7.01163788 24.12300385 8.08161011 24.12442017 9.18400574 C24.12082489 10.36795425 24.11722961 11.55190277 24.11352539 12.77172852 C24.11367142 14.010578 24.11381744 15.24942749 24.1139679 16.52581787 C24.11338892 19.93269833 24.10835959 23.33951884 24.10139394 26.74638867 C24.09515993 30.30316826 24.09455656 33.85994858 24.09336853 37.41673279 C24.09025535 44.15636582 24.08204215 50.89598271 24.07201904 57.63560861 C24.06085748 65.30658398 24.05534735 72.97756011 24.05032361 80.64854157 C24.03985952 96.43237041 24.02226035 112.21618313 24 128 C21.49502996 129.25248502 19.79146726 129.11374406 16.9921875 129.09765625 C16.00605469 129.09443359 15.01992188 129.09121094 14.00390625 129.08789062 C12.97136719 129.07951172 11.93882812 129.07113281 10.875 129.0625 C9.31458984 129.05573242 9.31458984 129.05573242 7.72265625 129.04882812 C5.14838038 129.03701952 2.57421854 129.02055075 0 129 C-1.24903801 126.50192399 -1.12583457 124.8233 -1.12698364 122.02746582 C-1.13121338 120.45002342 -1.13121338 120.45002342 -1.13552856 118.8407135 C-1.13350433 117.68220383 -1.1314801 116.52369415 -1.12939453 115.33007812 C-1.13114685 114.11380234 -1.13289917 112.89752655 -1.13470459 111.64439392 C-1.13835904 108.30355381 -1.13749204 104.9627754 -1.1343255 101.62193871 C-1.13179855 98.13016042 -1.13414038 94.63838483 -1.13571167 91.14660645 C-1.13753238 85.28214035 -1.13512963 79.41768684 -1.13037109 73.55322266 C-1.12492866 66.76743769 -1.12669139 59.98168277 -1.1321975 53.19589853 C-1.13673143 47.37591497 -1.1373778 41.55594047 -1.13475883 35.73595572 C-1.1331976 32.25723878 -1.1329981 28.77853598 -1.13629532 25.29981995 C-1.13971286 21.42317532 -1.13497971 17.54656451 -1.12939453 13.66992188 C-1.13243088 11.93215736 -1.13243088 11.93215736 -1.13552856 10.1592865 C-1.13270874 9.10765823 -1.12988892 8.05602997 -1.12698364 6.97253418 C-1.12660662 6.05518242 -1.12622959 5.13783066 -1.12584114 4.19268036 C-1 2 -1 2 0 0 Z " fill="#000000" transform="translate(767,335)"/>
<path d="M0 0 C2.3125 -0.25 2.3125 -0.25 5 0 C7.30017272 2.5881033 8.6781569 5.2508921 9.97265625 8.44140625 C10.48602539 9.68760742 10.48602539 9.68760742 11.00976562 10.95898438 C11.35716797 11.81814453 11.70457031 12.67730469 12.0625 13.5625 C12.75883498 15.273312 13.45794354 16.98299839 14.16015625 18.69140625 C14.61853882 19.82364624 14.61853882 19.82364624 15.08618164 20.97875977 C16.04248386 23.23995287 16.04248386 23.23995287 18 26 C18.39832031 25.05898438 18.79664063 24.11796875 19.20703125 23.1484375 C19.74208876 21.890583 20.27725058 20.63277286 20.8125 19.375 C21.07353516 18.75753906 21.33457031 18.14007812 21.60351562 17.50390625 C22.8723982 14.52751503 24.19590713 11.60865109 25.64453125 8.71484375 C27.06905221 6.04369448 27.06905221 6.04369448 27.875 3.1875 C29 1 29 1 31.375 0 C34 0 34 0 36.1875 0.875 C38.55739922 3.65350253 38.91682483 6.10034794 39.55859375 9.64453125 C39.96512874 11.81391709 40.5222404 13.83598458 41.1875 15.9375 C42 19 42 19 41 21 C41.66 21 42.32 21 43 21 C43.1546875 22.2375 43.1546875 22.2375 43.3125 23.5 C43.98582929 26.92785823 45.0321882 29.86545217 46.296875 33.1015625 C47.14127347 35.38143838 47.70734118 37.58556474 48 40 C46.10511048 41.89488952 43.42860854 41.18019112 40.91015625 41.23046875 C39 41 39 41 37 39 C36.63473747 36.67145135 36.30649316 34.33701038 36 32 C35.62875 30.741875 35.2575 29.48375 34.875 28.1875 C34 25 34 25 35 23 C34.34 23 33.68 23 33 23 C32.34 22.01 31.68 21.02 31 20 C30.505 21.485 30.505 21.485 30 23 C29.34 23 28.68 23 28 23 C27.896875 24.03125 27.79375 25.0625 27.6875 26.125 C26.99625799 30.02109135 25.90196232 32.56183734 24 36 C23.54625 37.093125 23.0925 38.18625 22.625 39.3125 C21 42 21 42 18.5625 43.125 C16 43 16 43 14.06640625 41.53515625 C11.2639202 38.09694558 9.92911904 34.43504144 8.375 30.3125 C7.78482317 28.76455774 7.18875864 27.21884334 6.5859375 25.67578125 C6.3286084 24.99427002 6.0712793 24.31275879 5.80615234 23.6105957 C5.10168151 21.80098222 5.10168151 21.80098222 3 21 C2.01 24.3 1.02 27.6 0 31 C-0.66 31 -1.32 31 -2 31 C-1.67 32.32 -1.34 33.64 -1 35 C-1.66 35 -2.32 35 -3 35 C-2.67 35.99 -2.34 36.98 -2 38 C-2.66 38.99 -3.32 39.98 -4 41 C-5.9453125 41.29296875 -5.9453125 41.29296875 -8.125 41.1875 C-9.40375 41.125625 -10.6825 41.06375 -12 41 C-12.33 40.34 -12.66 39.68 -13 39 C-12.29691471 37.06860797 -11.58627378 35.13945268 -10.828125 33.22900391 C-9.54972686 29.7880325 -8.78731116 26.26686127 -8 22.6875 C-7.65865929 21.20156814 -7.31620887 19.71589077 -6.97265625 18.23046875 C-6.80781738 17.51294434 -6.64297852 16.79541992 -6.47314453 16.05615234 C-5.81552462 13.19832214 -5.14788169 10.34524605 -4.4375 7.5 C-4.12619141 6.21609375 -4.12619141 6.21609375 -3.80859375 4.90625 C-3.54175781 4.2771875 -3.27492188 3.648125 -3 3 C-2.01 2.67 -1.02 2.34 0 2 C0 1.34 0 0.68 0 0 Z " fill="#010000" transform="translate(343,513)"/>
<path d="M0 0 C0.75990234 -0.01160156 1.51980469 -0.02320313 2.30273438 -0.03515625 C8.66458329 -0.00255924 14.25768227 1.12723666 19.3046875 5.171875 C24.56590329 11.46519533 26.80963374 17.00710213 26.0625 25.375 C25.01639368 28.51969765 23.54331815 31.4133637 22.0625 34.375 C21.4025 34.375 20.7425 34.375 20.0625 34.375 C19.96775391 34.98923828 19.87300781 35.60347656 19.77539062 36.23632812 C18.88628216 38.90365352 18.13317261 39.34650528 15.65625 40.59375 C10.65465471 42.86720241 5.9845157 42.96834891 0.5625 42.875 C-0.33597656 42.89046875 -1.23445313 42.9059375 -2.16015625 42.921875 C-8.115987 42.88719767 -13.05555243 41.97403168 -17.9375 38.375 C-19.4375 35.625 -19.4375 35.625 -19.9375 33.375 C-20.5975 33.375 -21.2575 33.375 -21.9375 33.375 C-25.69533998 27.73824003 -25.73868637 21.99814068 -24.9375 15.375 C-22.89737334 9.32043055 -18.42337075 4.66790263 -12.828125 1.7578125 C-8.55786134 0.00350583 -4.56674582 -0.06936829 0 0 Z M-14.9375 14.375 C-15.80379618 17.73189769 -15.97964885 20.91879454 -15.9375 24.375 C-15.9375 25.035 -15.9375 25.695 -15.9375 26.375 C-15.2775 26.375 -14.6175 26.375 -13.9375 26.375 C-13.710625 26.973125 -13.48375 27.57125 -13.25 28.1875 C-11.52312553 31.06562412 -9.95428805 31.90793184 -6.9375 33.375 C-3.56283188 33.84811966 -3.56283188 33.84811966 0 33.75 C1.77697266 33.76160156 1.77697266 33.76160156 3.58984375 33.7734375 C8.0943 33.25661575 11.59393666 32.13880976 14.55859375 28.578125 C16.85430266 23.81524344 17.61607878 20.65716785 16.0625 15.375 C14.00586583 12.39288045 11.44677047 11.48933296 8.0625 10.375 C-4.41936377 9.05972836 -4.41936377 9.05972836 -14.9375 14.375 Z " fill="#010000" transform="translate(441.9375,512.625)"/>
<path d="M0 0 C1.14662109 -0.02416992 1.14662109 -0.02416992 2.31640625 -0.04882812 C7.88679105 -0.0535568 12.01209313 1.10544794 17.125 3.3125 C17.125 3.9725 17.125 4.6325 17.125 5.3125 C17.7025 5.498125 18.28 5.68375 18.875 5.875 C22.29230561 8.05827858 23.90631982 10.53273558 25.125 14.3125 C26.09223076 21.79300945 26.25152363 28.58086219 21.546875 34.765625 C17.3192889 39.36486702 13.17013022 42.00662681 6.81323242 42.48730469 C4.18509544 42.54481647 1.56597608 42.53616296 -1.0625 42.5 C-1.96419922 42.49935547 -2.86589844 42.49871094 -3.79492188 42.49804688 C-10.4521989 42.4534337 -10.4521989 42.4534337 -13.875 41.3125 C-13.875 40.6525 -13.875 39.9925 -13.875 39.3125 C-14.431875 39.27125 -14.98875 39.23 -15.5625 39.1875 C-19.0502347 37.8678166 -20.92065088 35.36487566 -22.875 32.3125 C-25.32454845 26.24695147 -26.12841953 19.40035687 -24.1875 13.0703125 C-21.61283026 7.38458349 -18.06804103 3.65867854 -12.234375 1.19921875 C-8.07605645 0.10161606 -4.2803254 -0.01786446 0 0 Z M-14.625 15.125 C-16.33769899 18.12222323 -16.94224639 19.81568797 -16.875 23.3125 C-14.48225831 27.70465598 -11.70834749 31.60210766 -6.875 33.3125 C0.34704498 33.98984161 7.95335027 34.520443 14.125 30.3125 C16.90309379 25.75642618 15.97284745 21.67576283 15.0234375 16.6796875 C13.83788069 13.55600303 12.88915455 12.238238 10.125 10.3125 C7.13163661 9.75559518 4.2233158 9.79940941 1.1875 9.875 C0.38892578 9.86791016 -0.40964844 9.86082031 -1.23242188 9.85351562 C-6.94138967 9.91500409 -10.54055643 10.89468345 -14.625 15.125 Z " fill="#010000" transform="translate(629.875,512.6875)"/>
<path d="M0 0 C0.78375 0.04125 1.5675 0.0825 2.375 0.125 C2.375 0.785 2.375 1.445 2.375 2.125 C3.096875 2.33125 3.81875 2.5375 4.5625 2.75 C7.60009361 4.23504577 9.07551849 5.96816918 11.125 8.61328125 C12.93481417 10.80202526 15.13632012 12.39002309 17.375 14.125 C20.86770051 17.43858767 23.98627961 20.96190928 27.04296875 24.671875 C28.3329691 26.25279183 28.3329691 26.25279183 30.375 27.125 C30.36976318 26.34261963 30.36452637 25.56023926 30.35913086 24.75415039 C30.33842894 21.23194167 30.32536162 17.7097457 30.3125 14.1875 C30.30412109 12.95580078 30.29574219 11.72410156 30.28710938 10.45507812 C30.28388672 9.28525391 30.28066406 8.11542969 30.27734375 6.91015625 C30.27210693 5.82613525 30.26687012 4.74211426 30.26147461 3.62524414 C30.375 1.125 30.375 1.125 31.375 0.125 C33.37458364 0.08419217 35.37545254 0.08245644 37.375 0.125 C37.59198236 5.76616126 37.78885617 11.40752856 37.96704102 17.05004883 C38.03050909 18.96983642 38.09949015 20.88944994 38.17407227 22.80883789 C38.28026548 25.56629801 38.36668026 28.3237744 38.44921875 31.08203125 C38.48657639 31.94149857 38.52393402 32.80096588 38.56242371 33.68647766 C38.58267105 34.48708115 38.6029184 35.28768463 38.6237793 36.11254883 C38.64820602 36.8164827 38.67263275 37.52041656 38.69779968 38.24568176 C38.26937177 40.73996052 37.38295952 41.63072567 35.375 43.125 C32.6875 42.8125 32.6875 42.8125 30.375 42.125 C30.375 41.465 30.375 40.805 30.375 40.125 C29.715 40.125 29.055 40.125 28.375 40.125 C27 38.69140625 27 38.69140625 25.375 36.6875 C21.85516403 32.53571018 18.00050893 28.97187813 13.90234375 25.3984375 C10.95789734 22.74980101 8.17544996 19.92544996 5.375 17.125 C5.045 25.045 4.715 32.965 4.375 41.125 C1.405 41.125 -1.565 41.125 -4.625 41.125 C-4.6743521 35.60743524 -4.71069662 30.08999829 -4.73486328 24.57226562 C-4.74493534 22.69431318 -4.75859362 20.81637647 -4.77587891 18.93847656 C-4.80007453 16.2427991 -4.81147083 13.54732854 -4.8203125 10.8515625 C-4.83063507 10.00880768 -4.84095764 9.16605286 -4.85159302 8.29776001 C-4.85199144 6.23878753 -4.74757588 4.18032065 -4.625 2.125 C-2.625 0.125 -2.625 0.125 0 0 Z " fill="#010000" transform="translate(690.625,512.875)"/>
<path d="M0 0 C1.56047445 0.00015913 3.12095416 0.00585397 4.68139648 0.01586914 C5.91115456 0.01799156 5.91115456 0.01799156 7.16575623 0.02015686 C9.79470406 0.0257725 12.42356797 0.0383276 15.05249023 0.05102539 C16.8304838 0.05603838 18.60847869 0.06060163 20.38647461 0.06469727 C24.75434569 0.07574701 29.12215371 0.09302208 33.48999023 0.11352539 C34.85951696 2.85257885 34.61620385 5.08439871 34.48999023 8.11352539 C34.15999023 8.77352539 33.82999023 9.43352539 33.48999023 10.11352539 C29.19999023 10.11352539 24.90999023 10.11352539 20.48999023 10.11352539 C20.48999023 20.34352539 20.48999023 30.57352539 20.48999023 41.11352539 C15.53999023 41.60852539 15.53999023 41.60852539 10.48999023 42.11352539 C10.48999023 31.55352539 10.48999023 20.99352539 10.48999023 10.11352539 C5.86999023 10.11352539 1.24999023 10.11352539 -3.51000977 10.11352539 C-5.00107433 7.13139626 -4.62942444 4.39742881 -4.51000977 1.11352539 C-3.51000977 0.11352539 -3.51000977 0.11352539 0 0 Z " fill="#010000" transform="translate(499.510009765625,512.886474609375)"/>
<path d="M0 0 C2.31 0 4.62 0 7 0 C9.61152506 2.61152506 9.23779913 4.43881854 9.25224304 7.99464417 C9.24505753 8.81238815 9.23787201 9.63013214 9.23046875 10.47265625 C9.22978142 11.73002846 9.22978142 11.73002846 9.2290802 13.01280212 C9.22605724 14.78564875 9.21816963 16.55849271 9.20581055 18.33129883 C9.18755065 21.05494522 9.18530085 23.77825192 9.18554688 26.50195312 C9.18063192 28.22135713 9.1748037 29.94075881 9.16796875 31.66015625 C9.16685593 32.47992447 9.1657431 33.29969269 9.16459656 34.14430237 C9.11604801 39.88395199 9.11604801 39.88395199 8 41 C5.36 41 2.72 41 0 41 C0 27.47 0 13.94 0 0 Z " fill="#010000" transform="translate(565,513)"/>
<path d="" fill="#000000" transform="translate(0,0)"/>
</svg>
